<?xml version='1.0' encoding='utf8'?>
<COLLADA xmlns="http://www.collada.org/2005/11/COLLADASchema" version="1.4.1"><asset><created>2026-10-03T13:05:23.854029+00:00</created><unit name="OpenMWUnit" meter="0.014285714" /><up_axis>Z_UP</up_axis></asset><library_images><image id="plaster-image"><init_from>textures/rezero/plaster.dds</init_from></image><image id="oak-image"><init_from>textures/rezero/oak.dds</init_from></image></library_images><library_effects><effect id="plaster-effect"><profile_COMMON><newparam sid="plaster-surface"><surface type="2D"><init_from>plaster-image</init_from></surface></newparam><newparam sid="plaster-sampler"><sampler2D><source>plaster-surface</source></sampler2D></newparam><technique sid="common"><phong><emission><color>0 0 0 1</color></emission><ambient><color>.5 .5 .5 1</color></ambient><diffuse><texture texture="plaster-sampler" texcoord="UVMap" /></diffuse><specular><color>0.04 0.04 0.04 1</color></specular><shininess><float>6</float></shininess></phong></technique></profile_COMMON></effect><effect id="oak-effect"><profile_COMMON><newparam sid="oak-surface"><surface type="2D"><init_from>oak-image</init_from></surface></newparam><newparam sid="oak-sampler"><sampler2D><source>oak-surface</source></sampler2D></newparam><technique sid="common"><phong><emission><color>0 0 0 1</color></emission><ambient><color>.5 .5 .5 1</color></ambient><diffuse><texture texture="oak-sampler" texcoord="UVMap" /></diffuse><specular><color>0.22 0.22 0.22 1</color></specular><shininess><float>48</float></shininess></phong></technique></profile_COMMON></effect></library_effects><library_materials><material id="plaster-material"><instance_effect url="#plaster-effect" /></material><material id="oak-material"><instance_effect url="#oak-effect" /></material></library_materials><library_geometries><geometry id="rezero-plaster"><mesh><source id="rezero-plaster-p"><float_array id="rezero-plaster-p-array" count="216">-12.7 -91.35 -129 -12.7 -70.65 -129 12.7 -70.65 -129 -12.7 -91.35 -129 12.7 -70.65 -129 12.7 -91.35 -129 -12.7 -91.35 101 12.7 -91.35 101 12.7 -70.65 101 -12.7 -91.35 101 12.7 -70.65 101 -12.7 -70.65 101 -12.7 -91.35 -129 12.7 -91.35 -129 12.7 -91.35 101 -12.7 -91.35 -129 12.7 -91.35 101 -12.7 -91.35 101 12.7 -91.35 -129 12.7 -70.65 -129 12.7 -70.65 101 12.7 -91.35 -129 12.7 -70.65 101 12.7 -91.35 101 12.7 -70.65 -129 -12.7 -70.65 -129 -12.7 -70.65 101 12.7 -70.65 -129 -12.7 -70.65 101 12.7 -70.65 101 -12.7 -70.65 -129 -12.7 -91.35 -129 -12.7 -91.35 101 -12.7 -70.65 -129 -12.7 -91.35 101 -12.7 -70.65 101 -12.7 70.65 -129 -12.7 91.35 -129 12.7 91.35 -129 -12.7 70.65 -129 12.7 91.35 -129 12.7 70.65 -129 -12.7 70.65 101 12.7 70.65 101 12.7 91.35 101 -12.7 70.65 101 12.7 91.35 101 -12.7 91.35 101 -12.7 70.65 -129 12.7 70.65 -129 12.7 70.65 101 -12.7 70.65 -129 12.7 70.65 101 -12.7 70.65 101 12.7 70.65 -129 12.7 91.35 -129 12.7 91.35 101 12.7 70.65 -129 12.7 91.35 101 12.7 70.65 101 12.7 91.35 -129 -12.7 91.35 -129 -12.7 91.35 101 12.7 91.35 -129 -12.7 91.35 101 12.7 91.35 101 -12.7 91.35 -129 -12.7 70.65 -129 -12.7 70.65 101 -12.7 91.35 -129 -12.7 70.65 101 -12.7 91.35 101</float_array><technique_common><accessor source="#rezero-plaster-p-array" count="72" stride="3"><param name="X" type="float" /><param name="Y" type="float" /><param name="Z" type="float" /></accessor></technique_common></source><source id="rezero-plaster-n"><float_array id="rezero-plaster-n-array" count="216">0 0 -1 0 0 -1 0 0 -1 0 0 -1 0 0 -1 0 0 -1 0 0 1 0 0 1 0 0 1 0 0 1 0 0 1 0 0 1 0 -1 0 0 -1 0 0 -1 0 0 -1 0 0 -1 0 0 -1 0 1 0 0 1 0 0 1 0 0 1 0 0 1 0 0 1 0 0 0 1 0 0 1 0 0 1 0 0 1 -0 0 1 -0 0 1 -0 -1 0 0 -1 0 0 -1 0 0 -1 0 0 -1 0 0 -1 0 0 0 0 -1 0 0 -1 0 0 -1 0 0 -1 0 0 -1 0 0 -1 0 0 1 0 0 1 0 0 1 0 0 1 0 0 1 0 0 1 0 -1 0 0 -1 0 0 -1 0 0 -1 0 0 -1 0 0 -1 0 1 0 0 1 0 0 1 0 0 1 0 0 1 0 0 1 0 0 0 1 0 0 1 0 0 1 0 0 1 -0 0 1 -0 0 1 -0 -1 0 0 -1 0 0 -1 0 0 -1 0 0 -1 0 0 -1 0 0</float_array><technique_common><accessor source="#rezero-plaster-n-array" count="72" stride="3"><param name="X" type="float" /><param name="Y" type="float" /><param name="Z" type="float" /></accessor></technique_common></source><source id="rezero-plaster-uv"><float_array id="rezero-plaster-uv-array" count="144">-0.0907142857 -0.6525 -0.0907142857 -0.504642857 0.0907142857 -0.504642857 -0.0907142857 -0.6525 0.0907142857 -0.504642857 0.0907142857 -0.6525 -0.0907142857 -0.6525 0.0907142857 -0.6525 0.0907142857 -0.504642857 -0.0907142857 -0.6525 0.0907142857 -0.504642857 -0.0907142857 -0.504642857 -0.0907142857 -0.921428571 0.0907142857 -0.921428571 0.0907142857 0.721428571 -0.0907142857 -0.921428571 0.0907142857 0.721428571 -0.0907142857 0.721428571 -0.6525 -0.921428571 -0.504642857 -0.921428571 -0.504642857 0.721428571 -0.6525 -0.921428571 -0.504642857 0.721428571 -0.6525 0.721428571 0.0907142857 -0.921428571 -0.0907142857 -0.921428571 -0.0907142857 0.721428571 0.0907142857 -0.921428571 -0.0907142857 0.721428571 0.0907142857 0.721428571 -0.504642857 -0.921428571 -0.6525 -0.921428571 -0.6525 0.721428571 -0.504642857 -0.921428571 -0.6525 0.721428571 -0.504642857 0.721428571 -0.0907142857 0.504642857 -0.0907142857 0.6525 0.0907142857 0.6525 -0.0907142857 0.504642857 0.0907142857 0.6525 0.0907142857 0.504642857 -0.0907142857 0.504642857 0.0907142857 0.504642857 0.0907142857 0.6525 -0.0907142857 0.504642857 0.0907142857 0.6525 -0.0907142857 0.6525 -0.0907142857 -0.921428571 0.0907142857 -0.921428571 0.0907142857 0.721428571 -0.0907142857 -0.921428571 0.0907142857 0.721428571 -0.0907142857 0.721428571 0.504642857 -0.921428571 0.6525 -0.921428571 0.6525 0.721428571 0.504642857 -0.921428571 0.6525 0.721428571 0.504642857 0.721428571 0.0907142857 -0.921428571 -0.0907142857 -0.921428571 -0.0907142857 0.721428571 0.0907142857 -0.921428571 -0.0907142857 0.721428571 0.0907142857 0.721428571 0.6525 -0.921428571 0.504642857 -0.921428571 0.504642857 0.721428571 0.6525 -0.921428571 0.504642857 0.721428571 0.6525 0.721428571</float_array><technique_common><accessor source="#rezero-plaster-uv-array" count="72" stride="2"><param name="S" type="float" /><param name="T" type="float" /></accessor></technique_common></source><vertices id="rezero-plaster-vertices"><input semantic="POSITION" source="#rezero-plaster-p" /></vertices><triangles count="24" material="plaster-slot"><input offset="0" semantic="VERTEX" source="#rezero-plaster-vertices" /><input offset="1" semantic="NORMAL" source="#rezero-plaster-n" /><input offset="2" semantic="TEXCOORD" source="#rezero-plaster-uv" set="0" /><p>0 0 0 1 1 1 2 2 2 3 3 3 4 4 4 5 5 5 6 6 6 7 7 7 8 8 8 9 9 9 10 10 10 11 11 11 12 12 12 13 13 13 14 14 14 15 15 15 16 16 16 17 17 17 18 18 18 19 19 19 20 20 20 21 21 21 22 22 22 23 23 23 24 24 24 25 25 25 26 26 26 27 27 27 28 28 28 29 29 29 30 30 30 31 31 31 32 32 32 33 33 33 34 34 34 35 35 35 36 36 36 37 37 37 38 38 38 39 39 39 40 40 40 41 41 41 42 42 42 43 43 43 44 44 44 45 45 45 46 46 46 47 47 47 48 48 48 49 49 49 50 50 50 51 51 51 52 52 52 53 53 53 54 54 54 55 55 55 56 56 56 57 57 57 58 58 58 59 59 59 60 60 60 61 61 61 62 62 62 63 63 63 64 64 64 65 65 65 66 66 66 67 67 67 68 68 68 69 69 69 70 70 70 71 71 71</p></triangles></mesh></geometry><geometry id="rezero-oak"><mesh><source id="rezero-oak-p"><float_array id="rezero-oak-p-array" count="108">-11.5 -91 92 -11.5 91 92 11.5 91 92 -11.5 -91 92 11.5 91 92 11.5 -91 92 -11.5 -91 108 11.5 -91 108 11.5 91 108 -11.5 -91 108 11.5 91 108 -11.5 91 108 -11.5 -91 92 11.5 -91 92 11.5 -91 108 -11.5 -91 92 11.5 -91 108 -11.5 -91 108 11.5 -91 92 11.5 91 92 11.5 91 108 11.5 -91 92 11.5 91 108 11.5 -91 108 11.5 91 92 -11.5 91 92 -11.5 91 108 11.5 91 92 -11.5 91 108 11.5 91 108 -11.5 91 92 -11.5 -91 92 -11.5 -91 108 -11.5 91 92 -11.5 -91 108 -11.5 91 108</float_array><technique_common><accessor source="#rezero-oak-p-array" count="36" stride="3"><param name="X" type="float" /><param name="Y" type="float" /><param name="Z" type="float" /></accessor></technique_common></source><source id="rezero-oak-n"><float_array id="rezero-oak-n-array" count="108">0 0 -1 0 0 -1 0 0 -1 0 0 -1 0 0 -1 0 0 -1 0 0 1 0 0 1 0 0 1 0 0 1 0 0 1 0 0 1 0 -1 0 0 -1 0 0 -1 0 0 -1 0 0 -1 0 0 -1 0 1 0 0 1 0 0 1 0 0 1 0 0 1 0 0 1 0 0 0 1 0 0 1 0 0 1 0 0 1 -0 0 1 -0 0 1 -0 -1 0 0 -1 0 0 -1 0 0 -1 0 0 -1 0 0 -1 0 0</float_array><technique_common><accessor source="#rezero-oak-n-array" count="36" stride="3"><param name="X" type="float" /><param name="Y" type="float" /><param name="Z" type="float" /></accessor></technique_common></source><source id="rezero-oak-uv"><float_array id="rezero-oak-uv-array" count="72">-0.164285714 -1.3 -0.164285714 1.3 0.164285714 1.3 -0.164285714 -1.3 0.164285714 1.3 0.164285714 -1.3 -0.164285714 -1.3 0.164285714 -1.3 0.164285714 1.3 -0.164285714 -1.3 0.164285714 1.3 -0.164285714 1.3 -0.164285714 1.31428571 0.164285714 1.31428571 0.164285714 1.54285714 -0.164285714 1.31428571 0.164285714 1.54285714 -0.164285714 1.54285714 -1.3 1.31428571 1.3 1.31428571 1.3 1.54285714 -1.3 1.31428571 1.3 1.54285714 -1.3 1.54285714 0.164285714 1.31428571 -0.164285714 1.31428571 -0.164285714 1.54285714 0.164285714 1.31428571 -0.164285714 1.54285714 0.164285714 1.54285714 1.3 1.31428571 -1.3 1.31428571 -1.3 1.54285714 1.3 1.31428571 -1.3 1.54285714 1.3 1.54285714</float_array><technique_common><accessor source="#rezero-oak-uv-array" count="36" stride="2"><param name="S" type="float" /><param name="T" type="float" /></accessor></technique_common></source><vertices id="rezero-oak-vertices"><input semantic="POSITION" source="#rezero-oak-p" /></vertices><triangles count="12" material="oak-slot"><input offset="0" semantic="VERTEX" source="#rezero-oak-vertices" /><input offset="1" semantic="NORMAL" source="#rezero-oak-n" /><input offset="2" semantic="TEXCOORD" source="#rezero-oak-uv" set="0" /><p>0 0 0 1 1 1 2 2 2 3 3 3 4 4 4 5 5 5 6 6 6 7 7 7 8 8 8 9 9 9 10 10 10 11 11 11 12 12 12 13 13 13 14 14 14 15 15 15 16 16 16 17 17 17 18 18 18 19 19 19 20 20 20 21 21 21 22 22 22 23 23 23 24 24 24 25 25 25 26 26 26 27 27 27 28 28 28 29 29 29 30 30 30 31 31 31 32 32 32 33 33 33 34 34 34 35 35 35</p></triangles></mesh></geometry><geometry id="rezero-collision"><mesh><source id="rezero-collision-p"><float_array id="rezero-collision-p-array" count="324">-12.7 -91.35 -129 -12.7 -70.65 -129 12.7 -70.65 -129 -12.7 -91.35 -129 12.7 -70.65 -129 12.7 -91.35 -129 -12.7 -91.35 101 12.7 -91.35 101 12.7 -70.65 101 -12.7 -91.35 101 12.7 -70.65 101 -12.7 -70.65 101 -12.7 -91.35 -129 12.7 -91.35 -129 12.7 -91.35 101 -12.7 -91.35 -129 12.7 -91.35 101 -12.7 -91.35 101 12.7 -91.35 -129 12.7 -70.65 -129 12.7 -70.65 101 12.7 -91.35 -129 12.7 -70.65 101 12.7 -91.35 101 12.7 -70.65 -129 -12.7 -70.65 -129 -12.7 -70.65 101 12.7 -70.65 -129 -12.7 -70.65 101 12.7 -70.65 101 -12.7 -70.65 -129 -12.7 -91.35 -129 -12.7 -91.35 101 -12.7 -70.65 -129 -12.7 -91.35 101 -12.7 -70.65 101 -12.7 70.65 -129 -12.7 91.35 -129 12.7 91.35 -129 -12.7 70.65 -129 12.7 91.35 -129 12.7 70.65 -129 -12.7 70.65 101 12.7 70.65 101 12.7 91.35 101 -12.7 70.65 101 12.7 91.35 101 -12.7 91.35 101 -12.7 70.65 -129 12.7 70.65 -129 12.7 70.65 101 -12.7 70.65 -129 12.7 70.65 101 -12.7 70.65 101 12.7 70.65 -129 12.7 91.35 -129 12.7 91.35 101 12.7 70.65 -129 12.7 91.35 101 12.7 70.65 101 12.7 91.35 -129 -12.7 91.35 -129 -12.7 91.35 101 12.7 91.35 -129 -12.7 91.35 101 12.7 91.35 101 -12.7 91.35 -129 -12.7 70.65 -129 -12.7 70.65 101 -12.7 91.35 -129 -12.7 70.65 101 -12.7 91.35 101 -11.5 -91 92 -11.5 91 92 11.5 91 92 -11.5 -91 92 11.5 91 92 11.5 -91 92 -11.5 -91 108 11.5 -91 108 11.5 91 108 -11.5 -91 108 11.5 91 108 -11.5 91 108 -11.5 -91 92 11.5 -91 92 11.5 -91 108 -11.5 -91 92 11.5 -91 108 -11.5 -91 108 11.5 -91 92 11.5 91 92 11.5 91 108 11.5 -91 92 11.5 91 108 11.5 -91 108 11.5 91 92 -11.5 91 92 -11.5 91 108 11.5 91 92 -11.5 91 108 11.5 91 108 -11.5 91 92 -11.5 -91 92 -11.5 -91 108 -11.5 91 92 -11.5 -91 108 -11.5 91 108</float_array><technique_common><accessor source="#rezero-collision-p-array" count="108" stride="3"><param name="X" type="float" /><param name="Y" type="float" /><param name="Z" type="float" /></accessor></technique_common></source><source id="rezero-collision-n"><float_array id="rezero-collision-n-array" count="324">0 0 -1 0 0 -1 0 0 -1 0 0 -1 0 0 -1 0 0 -1 0 0 1 0 0 1 0 0 1 0 0 1 0 0 1 0 0 1 0 -1 0 0 -1 0 0 -1 0 0 -1 0 0 -1 0 0 -1 0 1 0 0 1 0 0 1 0 0 1 0 0 1 0 0 1 0 0 0 1 0 0 1 0 0 1 0 0 1 -0 0 1 -0 0 1 -0 -1 0 0 -1 0 0 -1 0 0 -1 0 0 -1 0 0 -1 0 0 0 0 -1 0 0 -1 0 0 -1 0 0 -1 0 0 -1 0 0 -1 0 0 1 0 0 1 0 0 1 0 0 1 0 0 1 0 0 1 0 -1 0 0 -1 0 0 -1 0 0 -1 0 0 -1 0 0 -1 0 1 0 0 1 0 0 1 0 0 1 0 0 1 0 0 1 0 0 0 1 0 0 1 0 0 1 0 0 1 -0 0 1 -0 0 1 -0 -1 0 0 -1 0 0 -1 0 0 -1 0 0 -1 0 0 -1 0 0 0 0 -1 0 0 -1 0 0 -1 0 0 -1 0 0 -1 0 0 -1 0 0 1 0 0 1 0 0 1 0 0 1 0 0 1 0 0 1 0 -1 0 0 -1 0 0 -1 0 0 -1 0 0 -1 0 0 -1 0 1 0 0 1 0 0 1 0 0 1 0 0 1 0 0 1 0 0 0 1 0 0 1 0 0 1 0 0 1 -0 0 1 -0 0 1 -0 -1 0 0 -1 0 0 -1 0 0 -1 0 0 -1 0 0 -1 0 0</float_array><technique_common><accessor source="#rezero-collision-n-array" count="108" stride="3"><param name="X" type="float" /><param name="Y" type="float" /><param name="Z" type="float" /></accessor></technique_common></source><source id="rezero-collision-uv"><float_array id="rezero-collision-uv-array" count="216">-0.181428571 -1.305 -0.181428571 -1.00928571 0.181428571 -1.00928571 -0.181428571 -1.305 0.181428571 -1.00928571 0.181428571 -1.305 -0.181428571 -1.305 0.181428571 -1.305 0.181428571 -1.00928571 -0.181428571 -1.305 0.181428571 -1.00928571 -0.181428571 -1.00928571 -0.181428571 -1.84285714 0.181428571 -1.84285714 0.181428571 1.44285714 -0.181428571 -1.84285714 0.181428571 1.44285714 -0.181428571 1.44285714 -1.305 -1.84285714 -1.00928571 -1.84285714 -1.00928571 1.44285714 -1.305 -1.84285714 -1.00928571 1.44285714 -1.305 1.44285714 0.181428571 -1.84285714 -0.181428571 -1.84285714 -0.181428571 1.44285714 0.181428571 -1.84285714 -0.181428571 1.44285714 0.181428571 1.44285714 -1.00928571 -1.84285714 -1.305 -1.84285714 -1.305 1.44285714 -1.00928571 -1.84285714 -1.305 1.44285714 -1.00928571 1.44285714 -0.181428571 1.00928571 -0.181428571 1.305 0.181428571 1.305 -0.181428571 1.00928571 0.181428571 1.305 0.181428571 1.00928571 -0.181428571 1.00928571 0.181428571 1.00928571 0.181428571 1.305 -0.181428571 1.00928571 0.181428571 1.305 -0.181428571 1.305 -0.181428571 -1.84285714 0.181428571 -1.84285714 0.181428571 1.44285714 -0.181428571 -1.84285714 0.181428571 1.44285714 -0.181428571 1.44285714 1.00928571 -1.84285714 1.305 -1.84285714 1.305 1.44285714 1.00928571 -1.84285714 1.305 1.44285714 1.00928571 1.44285714 0.181428571 -1.84285714 -0.181428571 -1.84285714 -0.181428571 1.44285714 0.181428571 -1.84285714 -0.181428571 1.44285714 0.181428571 1.44285714 1.305 -1.84285714 1.00928571 -1.84285714 1.00928571 1.44285714 1.305 -1.84285714 1.00928571 1.44285714 1.305 1.44285714 -0.164285714 -1.3 -0.164285714 1.3 0.164285714 1.3 -0.164285714 -1.3 0.164285714 1.3 0.164285714 -1.3 -0.164285714 -1.3 0.164285714 -1.3 0.164285714 1.3 -0.164285714 -1.3 0.164285714 1.3 -0.164285714 1.3 -0.164285714 1.31428571 0.164285714 1.31428571 0.164285714 1.54285714 -0.164285714 1.31428571 0.164285714 1.54285714 -0.164285714 1.54285714 -1.3 1.31428571 1.3 1.31428571 1.3 1.54285714 -1.3 1.31428571 1.3 1.54285714 -1.3 1.54285714 0.164285714 1.31428571 -0.164285714 1.31428571 -0.164285714 1.54285714 0.164285714 1.31428571 -0.164285714 1.54285714 0.164285714 1.54285714 1.3 1.31428571 -1.3 1.31428571 -1.3 1.54285714 1.3 1.31428571 -1.3 1.54285714 1.3 1.54285714</float_array><technique_common><accessor source="#rezero-collision-uv-array" count="108" stride="2"><param name="S" type="float" /><param name="T" type="float" /></accessor></technique_common></source><vertices id="rezero-collision-vertices"><input semantic="POSITION" source="#rezero-collision-p" /></vertices><triangles count="36"><input offset="0" semantic="VERTEX" source="#rezero-collision-vertices" /><input offset="1" semantic="NORMAL" source="#rezero-collision-n" /><input offset="2" semantic="TEXCOORD" source="#rezero-collision-uv" set="0" /><p>0 0 0 1 1 1 2 2 2 3 3 3 4 4 4 5 5 5 6 6 6 7 7 7 8 8 8 9 9 9 10 10 10 11 11 11 12 12 12 13 13 13 14 14 14 15 15 15 16 16 16 17 17 17 18 18 18 19 19 19 20 20 20 21 21 21 22 22 22 23 23 23 24 24 24 25 25 25 26 26 26 27 27 27 28 28 28 29 29 29 30 30 30 31 31 31 32 32 32 33 33 33 34 34 34 35 35 35 36 36 36 37 37 37 38 38 38 39 39 39 40 40 40 41 41 41 42 42 42 43 43 43 44 44 44 45 45 45 46 46 46 47 47 47 48 48 48 49 49 49 50 50 50 51 51 51 52 52 52 53 53 53 54 54 54 55 55 55 56 56 56 57 57 57 58 58 58 59 59 59 60 60 60 61 61 61 62 62 62 63 63 63 64 64 64 65 65 65 66 66 66 67 67 67 68 68 68 69 69 69 70 70 70 71 71 71 72 72 72 73 73 73 74 74 74 75 75 75 76 76 76 77 77 77 78 78 78 79 79 79 80 80 80 81 81 81 82 82 82 83 83 83 84 84 84 85 85 85 86 86 86 87 87 87 88 88 88 89 89 89 90 90 90 91 91 91 92 92 92 93 93 93 94 94 94 95 95 95 96 96 96 97 97 97 98 98 98 99 99 99 100 100 100 101 101 101 102 102 102 103 103 103 104 104 104 105 105 105 106 106 106 107 107 107</p></triangles></mesh></geometry></library_geometries><library_visual_scenes><visual_scene id="Scene"><node id="rezero-visual" name="OwnRezeroGeometry"><node id="node-plaster" name="plaster"><instance_geometry url="#rezero-plaster"><bind_material><technique_common><instance_material symbol="plaster-slot" target="#plaster-material"><bind_vertex_input semantic="UVMap" input_semantic="TEXCOORD" input_set="0" /></instance_material></technique_common></bind_material></instance_geometry></node><node id="node-oak" name="oak"><instance_geometry url="#rezero-oak"><bind_material><technique_common><instance_material symbol="oak-slot" target="#oak-material"><bind_vertex_input semantic="UVMap" input_semantic="TEXCOORD" input_set="0" /></instance_material></technique_common></bind_material></instance_geometry></node></node><node id="collision" name="collision"><instance_geometry url="#rezero-collision" /></node></visual_scene></library_visual_scenes><scene><instance_visual_scene url="#Scene" /></scene></COLLADA>