<?xml version='1.0' encoding='utf-8'?>
<COLLADA xmlns="http://www.collada.org/2005/11/COLLADASchema" version="1.4.1"><asset><created>2026-10-03T00:00:00Z</created><modified>2026-10-03T00:00:00Z</modified><up_axis>Z_UP</up_axis></asset><library_images><image id="m0-image"><init_from>textures/veyra/frontier/frontier_stone.dds</init_from></image><image id="m1-image"><init_from>textures/veyra/crown_leaf_01.dds</init_from></image></library_images><library_effects><effect id="m0-effect"><profile_COMMON><newparam sid="m0-surface"><surface type="2D"><init_from>m0-image</init_from></surface></newparam><newparam sid="m0-sampler"><sampler2D><source>m0-surface</source></sampler2D></newparam><technique sid="common"><phong><emission><color>0 0 0 1</color></emission><ambient><color>.55 .55 .55 1</color></ambient><diffuse><texture texture="m0-sampler" texcoord="UVMap" /></diffuse><specular><color>.008 .008 .008 1</color></specular><shininess><float>2</float></shininess></phong></technique></profile_COMMON></effect><effect id="m1-effect"><profile_COMMON><newparam sid="m1-surface"><surface type="2D"><init_from>m1-image</init_from></surface></newparam><newparam sid="m1-sampler"><sampler2D><source>m1-surface</source></sampler2D></newparam><technique sid="common"><phong><emission><color>0 0 0 1</color></emission><ambient><color>.55 .55 .55 1</color></ambient><diffuse><texture texture="m1-sampler" texcoord="UVMap" /></diffuse><specular><color>.008 .008 .008 1</color></specular><shininess><float>2</float></shininess></phong></technique></profile_COMMON></effect></library_effects><library_materials><material id="m0-material"><instance_effect url="#m0-effect" /></material><material id="m1-material"><instance_effect url="#m1-effect" /></material></library_materials><library_geometries><geometry id="g0"><mesh><source id="g0p"><float_array id="g0p-array" count="2160">21.4962 -79.27033 -3 18.21562 -61.46711 -3 21.69071 -63.00518 37.26014 21.69071 -63.00518 37.26014 18.21562 -61.46711 -3 21.4962 -79.27033 -3 21.4962 -79.27033 -3 21.69071 -63.00518 37.26014 24.19482 -76.59464 37.26014 24.19482 -76.59464 37.26014 21.69071 -63.00518 37.26014 21.4962 -79.27033 -3 24.19482 -76.59464 37.26014 21.69071 -63.00518 37.26014 32.19037 -63.88764 79.88852 32.19037 -63.88764 79.88852 21.69071 -63.00518 37.26014 24.19482 -76.59464 37.26014 24.19482 -76.59464 37.26014 32.19037 -63.88764 79.88852 33.69033 -72.0277 79.88852 33.69033 -72.0277 79.88852 32.19037 -63.88764 79.88852 24.19482 -76.59464 37.26014 33.69033 -72.0277 79.88852 32.19037 -63.88764 79.88852 46.55884 -65.44821 115.4122 46.55884 -65.44821 115.4122 32.19037 -63.88764 79.88852 33.69033 -72.0277 79.88852 44.59753 -68.67211 -3 46.90257 -95.89588 -3 42.97864 -92.98329 47.58547 42.97864 -92.98329 47.58547 46.90257 -95.89588 -3 44.59753 -68.67211 -3 44.59753 -68.67211 -3 42.97864 -92.98329 47.58547 41.21917 -72.20299 47.58547 41.21917 -72.20299 47.58547 42.97864 -92.98329 47.58547 44.59753 -68.67211 -3 41.21917 -72.20299 47.58547 42.97864 -92.98329 47.58547 30.80069 -89.81806 101.1466 30.80069 -89.81806 101.1466 42.97864 -92.98329 47.58547 41.21917 -72.20299 47.58547 41.21917 -72.20299 47.58547 30.80069 -89.81806 101.1466 29.74677 -77.3707 101.1466 29.74677 -77.3707 101.1466 30.80069 -89.81806 101.1466 41.21917 -72.20299 47.58547 29.74677 -77.3707 101.1466 30.80069 -89.81806 101.1466 14.16572 -84.95825 145.7808 14.16572 -84.95825 145.7808 30.80069 -89.81806 101.1466 29.74677 -77.3707 101.1466 79.966 25.66036 -3 79.26751 55.13146 -3 82.73542 51.72401 28.00317 82.73542 51.72401 28.00317 79.26751 55.13146 -3 79.966 25.66036 -3 79.966 25.66036 -3 82.73542 51.72401 28.00317 83.26859 29.22829 28.00317 83.26859 29.22829 28.00317 82.73542 51.72401 28.00317 79.966 25.66036 -3 83.26859 29.22829 28.00317 82.73542 51.72401 28.00317 93.80631 47.47345 60.83006 93.80631 47.47345 60.83006 82.73542 51.72401 28.00317 83.26859 29.22829 28.00317 83.26859 29.22829 28.00317 93.80631 47.47345 60.83006 94.12568 33.99856 60.83006 94.12568 33.99856 60.83006 93.80631 47.47345 60.83006 83.26859 29.22829 28.00317 94.12568 33.99856 60.83006 93.80631 47.47345 60.83006 108.9009 41.08997 88.18579 108.9009 41.08997 88.18579 93.80631 47.47345 60.83006 94.12568 33.99856 60.83006 110.1568 96.34154 -3 107.1018 119.8065 -3 109.9348 117.3514 44.57967 109.9348 117.3514 44.57967 107.1018 119.8065 -3 110.1568 96.34154 -3 110.1568 96.34154 -3 109.9348 117.3514 44.57967 112.2668 99.44024 44.57967 112.2668 99.44024 44.57967 109.9348 117.3514 44.57967 110.1568 96.34154 -3 112.2668 99.44024 44.57967 109.9348 117.3514 44.57967 118.4069 114.8024 94.95814 118.4069 114.8024 94.95814 109.9348 117.3514 44.57967 112.2668 99.44024 44.57967 112.2668 99.44024 44.57967 118.4069 114.8024 94.95814 119.8038 104.0736 94.95814 119.8038 104.0736 94.95814 118.4069 114.8024 94.95814 112.2668 99.44024 44.57967 119.8038 104.0736 94.95814 118.4069 114.8024 94.95814 130.009 110.8576 136.9402 130.009 110.8576 136.9402 118.4069 114.8024 94.95814 119.8038 104.0736 94.95814 51.85555 43.61067 -3 35.80608 33.71294 -3 35.75606 38.0452 39.32949 35.75606 38.0452 39.32949 35.80608 33.71294 -3 51.85555 43.61067 -3 51.85555 43.61067 -3 35.75606 38.0452 39.32949 48.00686 45.60028 39.32949 48.00686 45.60028 39.32949 35.75606 38.0452 39.32949 51.85555 43.61067 -3 48.00686 45.60028 39.32949 35.75606 38.0452 39.32949 31.89888 49.79749 84.14895 31.89888 49.79749 84.14895 35.75606 38.0452 39.32949 48.00686 45.60028 39.32949 48.00686 45.60028 39.32949 31.89888 49.79749 84.14895 39.23708 54.32297 84.14895 39.23708 54.32297 84.14895 31.89888 49.79749 84.14895 48.00686 45.60028 39.32949 39.23708 54.32297 84.14895 31.89888 49.79749 84.14895 26.9679 66.00553 121.4985 26.9679 66.00553 121.4985 31.89888 49.79749 84.14895 39.23708 54.32297 84.14895 -22.98351 -5.826158 -3 -35.47086 9.719487 -3 -30.55819 10.63891 47.72658 -30.55819 10.63891 47.72658 -35.47086 9.719487 -3 -22.98351 -5.826158 -3 -22.98351 -5.826158 -3 -30.55819 10.63891 47.72658 -21.02642 -1.22731 47.72658 -21.02642 -1.22731 47.72658 -30.55819 10.63891 47.72658 -22.98351 -5.826158 -3 -21.02642 -1.22731 47.72658 -30.55819 10.63891 47.72658 -17.52233 17.19588 101.4371 -17.52233 17.19588 101.4371 -30.55819 10.63891 47.72658 -21.02642 -1.22731 47.72658 -21.02642 -1.22731 47.72658 -17.52233 17.19588 101.4371 -11.81282 10.08804 101.4371 -11.81282 10.08804 101.4371 -17.52233 17.19588 101.4371 -21.02642 -1.22731 47.72658 -11.81282 10.08804 101.4371 -17.52233 17.19588 101.4371 0.4863105 25.81461 146.1958 0.4863105 25.81461 146.1958 -17.52233 17.19588 101.4371 -11.81282 10.08804 101.4371 -15.7354 56.42661 -3 -13.68141 36.92028 -3 -15.87234 39.0236 41.04551 -15.87234 39.0236 41.04551 -13.68141 36.92028 -3 -15.7354 56.42661 -3 -15.7354 56.42661 -3 -15.87234 39.0236 41.04551 -17.44018 53.91307 41.04551 -17.44018 53.91307 41.04551 -15.87234 39.0236 41.04551 -15.7354 56.42661 -3 -17.44018 53.91307 41.04551 -15.87234 39.0236 41.04551 -22.49531 41.34467 87.68194 -22.49531 41.34467 87.68194 -15.87234 39.0236 41.04551 -17.44018 53.91307 41.04551 -17.44018 53.91307 41.04551 -22.49531 41.34467 87.68194 -23.43444 50.26343 87.68194 -23.43444 50.26343 87.68194 -22.49531 41.34467 87.68194 -17.44018 53.91307 41.04551 -23.43444 50.26343 87.68194 -22.49531 41.34467 87.68194 -31.55834 44.89917 126.5456 -31.55834 44.89917 126.5456 -22.49531 41.34467 87.68194 -23.43444 50.26343 87.68194 86.31412 57.36432 -3 83.97376 85.00568 -3 86.57836 81.93161 37.63497 86.57836 81.93161 37.63497 83.97376 85.00568 -3 86.31412 57.36432 -3 86.31412 57.36432 -3 86.57836 81.93161 37.63497 88.36479 60.83255 37.63497 88.36479 60.83255 37.63497 86.57836 81.93161 37.63497 86.31412 57.36432 -3 88.36479 60.83255 37.63497 86.57836 81.93161 37.63497 94.4752 78.33951 80.66023 94.4752 78.33951 80.66023 86.57836 81.93161 37.63497 88.36479 60.83255 37.63497 88.36479 60.83255 37.63497 94.4752 78.33951 80.66023 95.54526 65.70122 80.66023 95.54526 65.70122 80.66023 94.4752 78.33951 80.66023 88.36479 60.83255 37.63497 95.54526 65.70122 80.66023 94.4752 78.33951 80.66023 105.2792 72.88983 116.5146 105.2792 72.88983 116.5146 94.4752 78.33951 80.66023 95.54526 65.70122 80.66023 18.74582 -22.04711 -3 26.10868 -2.735111 -3 27.22073 -5.776729 42.11102 27.22073 -5.776729 42.11102 26.10868 -2.735111 -3 18.74582 -22.04711 -3 18.74582 -22.04711 -3 27.22073 -5.776729 42.11102 21.60055 -20.51786 42.11102 21.60055 -20.51786 42.11102 27.22073 -5.776729 42.11102 18.74582 -22.04711 -3 21.60055 -20.51786 42.11102 27.22073 -5.776729 42.11102 32.51759 -11.18143 89.87563 32.51759 -11.18143 89.87563 27.22073 -5.776729 42.11102 21.60055 -20.51786 42.11102 21.60055 -20.51786 42.11102 32.51759 -11.18143 89.87563 29.15111 -20.01134 89.87563 29.15111 -20.01134 89.87563 32.51759 -11.18143 89.87563 21.60055 -20.51786 42.11102 29.15111 -20.01134 89.87563 32.51759 -11.18143 89.87563 39.5846 -18.93249 129.6795 39.5846 -18.93249 129.6795 32.51759 -11.18143 89.87563 29.15111 -20.01134 89.87563 -43.70283 65.01947 -3 -55.35649 74.10784 -3 -52.11261 75.42339 46.8332 -52.11261 75.42339 46.8332 -55.35649 74.10784 -3 -43.70283 65.01947 -3 -43.70283 65.01947 -3 -52.11261 75.42339 46.8332 -43.2172 68.4861 46.8332 -43.2172 68.4861 46.8332 -52.11261 75.42339 46.8332 -43.70283 65.01947 -3 -43.2172 68.4861 46.8332 -52.11261 75.42339 46.8332 -44.28961 81.77663 99.59776 -44.28961 81.77663 99.59776 -52.11261 75.42339 46.8332 -43.2172 68.4861 46.8332 -43.2172 68.4861 46.8332 -44.28961 81.77663 99.59776 -38.96128 77.62121 99.59776 -38.96128 77.62121 99.59776 -44.28961 81.77663 99.59776 -43.2172 68.4861 46.8332 -38.96128 77.62121 99.59776 -44.28961 81.77663 99.59776 -33.39861 90.24786 143.5682 -33.39861 90.24786 143.5682 -44.28961 81.77663 99.59776 -38.96128 77.62121 99.59776 77.70235 -15.64673 -3 70.64788 -33.23761 -3 69.20003 -30.24042 29.99847 69.20003 -30.24042 29.99847 70.64788 -33.23761 -3 77.70235 -15.64673 -3 77.70235 -15.64673 -3 69.20003 -30.24042 29.99847 74.5848 -16.81305 29.99847 74.5848 -16.81305 29.99847 69.20003 -30.24042 29.99847 77.70235 -15.64673 -3 74.5848 -16.81305 29.99847 69.20003 -30.24042 29.99847 62.88657 -24.58337 64.93803 62.88657 -24.58337 64.93803 69.20003 -30.24042 29.99847 74.5848 -16.81305 29.99847 74.5848 -16.81305 29.99847 62.88657 -24.58337 64.93803 66.11204 -16.5404 64.93803 66.11204 -16.5404 64.93803 62.88657 -24.58337 64.93803 74.5848 -16.81305 29.99847 66.11204 -16.5404 64.93803 62.88657 -24.58337 64.93803 54.42856 -16.52322 94.05433 54.42856 -16.52322 94.05433 62.88657 -24.58337 64.93803 66.11204 -16.5404 64.93803 39.48121 -69.44452 -3 53.76528 -52.17577 -3 55.06632 -56.69382 46.98576 55.06632 -56.69382 46.98576 53.76528 -52.17577 -3 39.48121 -69.44452 -3 39.48121 -69.44452 -3 55.06632 -56.69382 46.98576 44.16308 -69.87531 46.98576 44.16308 -69.87531 46.98576 55.06632 -56.69382 46.98576 39.48121 -69.44452 -3 44.16308 -69.87531 46.98576 55.06632 -56.69382 46.98576 62.5688 -67.35077 99.91186 62.5688 -67.35077 99.91186 55.06632 -56.69382 46.98576 44.16308 -69.87531 46.98576 44.16308 -69.87531 46.98576 62.5688 -67.35077 99.91186 56.03778 -75.24645 99.91186 56.03778 -75.24645 99.91186 62.5688 -67.35077 99.91186 44.16308 -69.87531 46.98576 56.03778 -75.24645 99.91186 62.5688 -67.35077 99.91186 72.50089 -82.21518 144.0169 72.50089 -82.21518 144.0169 62.5688 -67.35077 99.91186 56.03778 -75.24645 99.91186 93.10716 -91.28414 -3 104.7644 -100.0907 -3 100.9522 -102.2686 29.19544 100.9522 -102.2686 29.19544 104.7644 -100.0907 -3 93.10716 -91.28414 -3 93.10716 -91.28414 -3 100.9522 -102.2686 29.19544 92.05404 -95.54649 29.19544 92.05404 -95.54649 29.19544 100.9522 -102.2686 29.19544 93.10716 -91.28414 -3 92.05404 -95.54649 29.19544 100.9522 -102.2686 29.19544 91.2893 -111.3501 63.28473 91.2893 -111.3501 63.28473 100.9522 -102.2686 29.19544 92.05404 -95.54649 29.19544 92.05404 -95.54649 29.19544 91.2893 -111.3501 63.28473 85.95931 -107.3236 63.28473 85.95931 -107.3236 63.28473 91.2893 -111.3501 63.28473 92.05404 -95.54649 29.19544 85.95931 -107.3236 63.28473 91.2893 -111.3501 63.28473 77.89193 -123.5434 91.69247 77.89193 -123.5434 91.69247 91.2893 -111.3501 63.28473 85.95931 -107.3236 63.28473 103.2536 92.59255 -3 85.76303 79.34556 -3 86.02877 83.29535 32.93096 86.02877 83.29535 32.93096 85.76303 79.34556 -3 103.2536 92.59255 -3 103.2536 92.59255 -3 86.02877 83.29535 32.93096 99.3796 93.40697 32.93096 99.3796 93.40697 32.93096 86.02877 83.29535 32.93096 103.2536 92.59255 -3 99.3796 93.40697 32.93096 86.02877 83.29535 32.93096 82.86242 93.03779 70.97551 82.86242 93.03779 70.97551 86.02877 83.29535 32.93096 99.3796 93.40697 32.93096 99.3796 93.40697 32.93096 82.86242 93.03779 70.97551 90.85954 99.09463 70.97551 90.85954 99.09463 70.97551 82.86242 93.03779 70.97551 99.3796 93.40697 32.93096 90.85954 99.09463 70.97551 82.86242 93.03779 70.97551 78.90149 106.5755 102.6793 78.90149 106.5755 102.6793 82.86242 93.03779 70.97551 90.85954 99.09463 70.97551 -91.77662 -38.57507 -3 -68.69612 -53.68864 -3 -72.55362 -53.61976 45.16189 -72.55362 -53.61976 45.16189 -68.69612 -53.68864 -3 -91.77662 -38.57507 -3 -91.77662 -38.57507 -3 -72.55362 -53.61976 45.16189 -90.1713 -42.08335 45.16189 -90.1713 -42.08335 45.16189 -72.55362 -53.61976 45.16189 -91.77662 -38.57507 -3 -90.1713 -42.08335 45.16189 -72.55362 -53.61976 45.16189 -79.73313 -56.87638 96.15682 -79.73313 -56.87638 96.15682 -72.55362 -53.61976 45.16189 -90.1713 -42.08335 45.16189 -90.1713 -42.08335 45.16189 -79.73313 -56.87638 96.15682 -90.28608 -49.9661 96.15682 -90.28608 -49.9661 96.15682 -79.73313 -56.87638 96.15682 -90.1713 -42.08335 45.16189 -90.28608 -49.9661 96.15682 -79.73313 -56.87638 96.15682 -89.97766 -61.00815 138.6526 -89.97766 -61.00815 138.6526 -79.73313 -56.87638 96.15682 -90.28608 -49.9661 96.15682 -23.72784 -53.64629 -3 -17.03786 -71.72356 -3 -19.96314 -70.37384 34.05636 -19.96314 -70.37384 34.05636 -17.03786 -71.72356 -3 -23.72784 -53.64629 -3 -23.72784 -53.64629 -3 -19.96314 -70.37384 34.05636 -25.0697 -56.57519 34.05636 -25.0697 -56.57519 34.05636 -19.96314 -70.37384 34.05636 -23.72784 -53.64629 -3 -25.0697 -56.57519 34.05636 -19.96314 -70.37384 34.05636 -27.89714 -70.16447 73.2925 -27.89714 -70.16447 73.2925 -19.96314 -70.37384 34.05636 -25.0697 -56.57519 34.05636 -25.0697 -56.57519 34.05636 -27.89714 -70.16447 73.2925 -30.95596 -61.89911 73.2925 -30.95596 -61.89911 73.2925 -27.89714 -70.16447 73.2925 -25.0697 -56.57519 34.05636 -30.95596 -61.89911 73.2925 -27.89714 -70.16447 73.2925 -38.83938 -69.51526 105.9893 -38.83938 -69.51526 105.9893 -27.89714 -70.16447 73.2925 -30.95596 -61.89911 73.2925 26.31688 6.185499 -3 33.60724 24.36137 -3 35.40472 21.14336 33.69201 35.40472 21.14336 33.69201 33.60724 24.36137 -3 26.31688 6.185499 -3 26.31688 6.185499 -3 35.40472 21.14336 33.69201 29.83988 7.269457 33.69201 29.83988 7.269457 33.69201 35.40472 21.14336 33.69201 26.31688 6.185499 -3 29.83988 7.269457 33.69201 35.40472 21.14336 33.69201 42.90482 14.9058 72.54237 42.90482 14.9058 72.54237 35.40472 21.14336 33.69201 29.83988 7.269457 33.69201 29.83988 7.269457 33.69201 42.90482 14.9058 72.54237 39.57149 6.59536 72.54237 39.57149 6.59536 72.54237 42.90482 14.9058 72.54237 29.83988 7.269457 33.69201 39.57149 6.59536 72.54237 42.90482 14.9058 72.54237 52.9745 6.04312 104.9177 52.9745 6.04312 104.9177 42.90482 14.9058 72.54237 39.57149 6.59536 72.54237 62.94597 38.98605 -3 80.2039 21.63626 -3 75.31983 20.8628 28.77584 75.31983 20.8628 28.77584 80.2039 21.63626 -3 62.94597 38.98605 -3 62.94597 38.98605 -3 75.31983 20.8628 28.77584 62.14659 34.10615 28.77584 62.14659 34.10615 28.77584 75.31983 20.8628 28.77584 62.94597 38.98605 -3 62.14659 34.10615 28.77584 75.31983 20.8628 28.77584 63.47492 14.36318 62.42084 63.47492 14.36318 62.42084 75.31983 20.8628 28.77584 62.14659 34.10615 28.77584 62.14659 34.10615 28.77584 63.47492 14.36318 62.42084 55.58419 22.29592 62.42084 55.58419 22.29592 62.42084 63.47492 14.36318 62.42084 62.14659 34.10615 28.77584 55.58419 22.29592 62.42084 63.47492 14.36318 62.42084 46.99253 5.858903 90.45835 46.99253 5.858903 90.45835 63.47492 14.36318 62.42084 55.58419 22.29592 62.42084 45.44201 80.61779 -3 25.77959 64.31765 -3 26.44084 68.25589 46.6236 26.44084 68.25589 46.6236 25.77959 64.31765 -3 45.44201 80.61779 -3 45.44201 80.61779 -3 26.44084 68.25589 46.6236 41.44945 80.69802 46.6236 41.44945 80.69802 46.6236 26.44084 68.25589 46.6236 45.44201 80.61779 -3 41.44945 80.69802 46.6236 26.44084 68.25589 46.6236 24.05544 77.25796 99.16623 24.05544 77.25796 99.16623 26.44084 68.25589 46.6236 41.44945 80.69802 46.6236 41.44945 80.69802 46.6236 24.05544 77.25796 99.16623 33.04557 84.71077 99.16623 33.04557 84.71077 99.16623 24.05544 77.25796 99.16623 41.44945 80.69802 46.6236 33.04557 84.71077 99.16623 24.05544 77.25796 99.16623 21.20203 89.84863 142.9518 21.20203 89.84863 142.9518 24.05544 77.25796 99.16623 33.04557 84.71077 99.16623 70.18495 83.95973 -3 91.28164 90.87416 -3 90.07585 86.11735 27.56035 90.07585 86.11735 27.56035 91.28164 90.87416 -3 70.18495 83.95973 -3 70.18495 83.95973 -3 90.07585 86.11735 27.56035 73.97244 80.83946 27.56035 73.97244 80.83946 27.56035 90.07585 86.11735 27.56035 70.18495 83.95973 -3 73.97244 80.83946 27.56035 90.07585 86.11735 27.56035 91.02786 72.30316 59.91836 91.02786 72.30316 59.91836 90.07585 86.11735 27.56035 73.97244 80.83946 27.56035 73.97244 80.83946 27.56035 91.02786 72.30316 59.91836 81.38195 69.14171 59.91836 81.38195 69.14171 59.91836 91.02786 72.30316 59.91836 73.97244 80.83946 27.56035 81.38195 69.14171 59.91836 91.02786 72.30316 59.91836 91.89986 53.34652 86.88337 91.89986 53.34652 86.88337 91.02786 72.30316 59.91836 81.38195 69.14171 59.91836 98.93282 -75.338 -3 79.13981 -94.86176 -3 77.96287 -88.98344 40.69404 77.96287 -88.98344 40.69404 79.13981 -94.86176 -3 98.93282 -75.338 -3 98.93282 -75.338 -3 77.96287 -88.98344 40.69404 93.07117 -74.08067 40.69404 93.07117 -74.08067 40.69404 77.96287 -88.98344 40.69404 98.93282 -75.338 -3 93.07117 -74.08067 40.69404 77.96287 -88.98344 40.69404 69.59397 -74.4401 86.95832 69.59397 -74.4401 86.95832 77.96287 -88.98344 40.69404 93.07117 -74.08067 40.69404 93.07117 -74.08067 40.69404 69.59397 -74.4401 86.95832 78.64381 -65.51337 86.95832 78.64381 -65.51337 86.95832 69.59397 -74.4401 86.95832 93.07117 -74.08067 40.69404 78.64381 -65.51337 86.95832 69.59397 -74.4401 86.95832 58.59259 -54.23631 125.5119 58.59259 -54.23631 125.5119 69.59397 -74.4401 86.95832 78.64381 -65.51337 86.95832 75.45404 42.30079 -3 100.9553 50.54931 -3 98.90344 46.58651 44.47717 98.90344 46.58651 44.47717 100.9553 50.54931 -3 75.45404 42.30079 -3 75.45404 42.30079 -3 98.90344 46.58651 44.47717 79.43798 40.29029 44.47717 79.43798 40.29029 44.47717 98.90344 46.58651 44.47717 75.45404 42.30079 -3 79.43798 40.29029 44.47717 98.90344 46.58651 44.47717 98.12939 35.65108 94.74712 98.12939 35.65108 94.74712 98.90344 46.58651 44.47717 79.43798 40.29029 44.47717 79.43798 40.29029 44.47717 98.12939 35.65108 94.74712 86.46962 31.87966 94.74712 86.46962 31.87966 94.74712 98.12939 35.65108 94.74712 79.43798 40.29029 44.47717 86.46962 31.87966 94.74712 98.12939 35.65108 94.74712 96.56149 20.58897 136.6387 96.56149 20.58897 136.6387 98.12939 35.65108 94.74712 86.46962 31.87966 94.74712 20.44509 -43.39062 -3 7.190108 -58.85981 -3 4.911132 -53.73227 37.36136 4.911132 -53.73227 37.36136 7.190108 -58.85981 -3 20.44509 -43.39062 -3 20.44509 -43.39062 -3 4.911132 -53.73227 37.36136 15.02886 -41.92441 37.36136 15.02886 -41.92441 37.36136 4.911132 -53.73227 37.36136 20.44509 -43.39062 -3 15.02886 -41.92441 37.36136 4.911132 -53.73227 37.36136 -5.521706 -40.68701 80.09691 -5.521706 -40.68701 80.09691 4.911132 -53.73227 37.36136 15.02886 -41.92441 37.36136 15.02886 -41.92441 37.36136 -5.521706 -40.68701 80.09691 0.5387889 -33.61413 80.09691 0.5387889 -33.61413 80.09691 -5.521706 -40.68701 80.09691 15.02886 -41.92441 37.36136 0.5387889 -33.61413 80.09691 -5.521706 -40.68701 80.09691 -19.46619 -22.60554 115.7099 -19.46619 -22.60554 115.7099 -5.521706 -40.68701 80.09691 0.5387889 -33.61413 80.09691 85.24781 93.22476 -3 68.63774 115.7962 -3 72.49606 114.5178 37.25724 72.49606 114.5178 37.25724 68.63774 115.7962 -3 85.24781 93.22476 -3 85.24781 93.22476 -3 72.49606 114.5178 37.25724 85.17477 97.28869 37.25724 85.17477 97.28869 37.25724 72.49606 114.5178 37.25724 85.24781 93.22476 -3 85.17477 97.28869 37.25724 72.49606 114.5178 37.25724 81.16794 115.5742 79.88255 81.16794 115.5742 79.88255 72.49606 114.5178 37.25724 85.17477 97.28869 37.25724 85.17477 97.28869 37.25724 81.16794 115.5742 79.88255 88.76246 105.254 79.88255 88.76246 105.254 79.88255 81.16794 115.5742 79.88255 85.17477 97.28869 37.25724 88.76246 105.254 79.88255 81.16794 115.5742 79.88255 93.31507 116.5587 115.4036 93.31507 116.5587 115.4036 81.16794 115.5742 79.88255 88.76246 105.254 79.88255</float_array><technique_common><accessor source="#g0p-array" count="720" stride="3"><param name="X" type="float" /><param name="Y" type="float" /><param name="Z" type="float" /></accessor></technique_common></source><source id="g0n"><float_array id="g0n-array" count="2160">0.9804677 0.1806694 -0.07772781 0.9804677 0.1806694 -0.07772781 0.9804677 0.1806694 -0.07772781 -0.9804677 -0.1806694 0.07772781 -0.9804677 -0.1806694 0.07772781 -0.9804677 -0.1806694 0.07772781 0.9804677 0.1806694 -0.07772781 0.9804677 0.1806694 -0.07772781 0.9804677 0.1806694 -0.07772781 -0.9804677 -0.1806694 0.07772781 -0.9804677 -0.1806694 0.07772781 -0.9804677 -0.1806694 0.07772781 0.9566171 0.1762745 -0.2319721 0.9566171 0.1762745 -0.2319721 0.9566171 0.1762745 -0.2319721 -0.9566171 -0.1762745 0.2319721 -0.9566171 -0.1762745 0.2319721 -0.9566171 -0.1762745 0.2319721 0.9566171 0.1762745 -0.2319721 0.9566171 0.1762745 -0.2319721 0.9566171 0.1762745 -0.2319721 -0.9566171 -0.1762745 0.2319721 -0.9566171 -0.1762745 0.2319721 -0.9566171 -0.1762745 0.2319721 0.9162855 0.1688426 -0.3631984 0.9162855 0.1688426 -0.3631984 0.9162855 0.1688426 -0.3631984 -0.9162855 -0.1688426 0.3631984 -0.9162855 -0.1688426 0.3631984 -0.9162855 -0.1688426 0.3631984 -0.9938307 -0.08414786 -0.07224677 -0.9938307 -0.08414786 -0.07224677 -0.9938307 -0.08414786 -0.07224677 0.9938307 0.08414786 0.07224677 0.9938307 0.08414786 0.07224677 0.9938307 0.08414786 0.07224677 -0.9938307 -0.08414786 -0.07224677 -0.9938307 -0.08414786 -0.07224677 -0.9938307 -0.08414786 -0.07224677 0.9938307 0.08414786 0.07224677 0.9938307 0.08414786 0.07224677 0.9938307 0.08414786 0.07224677 -0.972841 -0.08237065 -0.2163228 -0.972841 -0.08237065 -0.2163228 -0.972841 -0.08237065 -0.2163228 0.972841 0.08237065 0.2163228 0.972841 0.08237065 0.2163228 0.972841 0.08237065 0.2163228 -0.972841 -0.08237065 -0.2163228 -0.972841 -0.08237065 -0.2163228 -0.972841 -0.08237065 -0.2163228 0.972841 0.08237065 0.2163228 0.972841 0.08237065 0.2163228 0.972841 0.08237065 0.2163228 -0.9368801 -0.07932583 -0.3405336 -0.9368801 -0.07932583 -0.3405336 -0.9368801 -0.07932583 -0.3405336 0.9368801 0.07932583 0.3405336 0.9368801 0.07932583 0.3405336 0.9368801 0.07932583 0.3405336 0.9938091 0.02355407 -0.1085754 0.9938091 0.02355407 -0.1085754 0.9938091 0.02355407 -0.1085754 -0.9938091 -0.02355407 0.1085754 -0.9938091 -0.02355407 0.1085754 -0.9938091 -0.02355407 0.1085754 0.9938091 0.02355407 -0.1085754 0.9938091 0.02355407 -0.1085754 0.9938091 0.02355407 -0.1085754 -0.9938091 -0.02355407 0.1085754 -0.9938091 -0.02355407 0.1085754 -0.9938091 -0.02355407 0.1085754 0.9482021 0.02247315 -0.3168719 0.9482021 0.02247315 -0.3168719 0.9482021 0.02247315 -0.3168719 -0.9482021 -0.02247315 0.3168719 -0.9482021 -0.02247315 0.3168719 -0.9482021 -0.02247315 0.3168719 0.9482021 0.02247315 -0.3168719 0.9482021 0.02247315 -0.3168719 0.9482021 0.02247315 -0.3168719 -0.9482021 -0.02247315 0.3168719 -0.9482021 -0.02247315 0.3168719 -0.9482021 -0.02247315 0.3168719 0.8774089 0.0207953 -0.4792923 0.8774089 0.0207953 -0.4792923 0.8774089 0.0207953 -0.4792923 -0.8774089 -0.0207953 0.4792923 -0.8774089 -0.0207953 0.4792923 -0.8774089 -0.0207953 0.4792923 0.9902729 0.1289309 -0.052311 0.9902729 0.1289309 -0.052311 0.9902729 0.1289309 -0.052311 -0.9902729 -0.1289309 0.052311 -0.9902729 -0.1289309 0.052311 -0.9902729 -0.1289309 0.052311 0.9902729 0.1289309 -0.052311 0.9902729 0.1289309 -0.052311 0.9902729 0.1289309 -0.052311 -0.9902729 -0.1289309 0.052311 -0.9902729 -0.1289309 0.052311 -0.9902729 -0.1289309 0.052311 0.9791412 0.1274816 -0.1582115 0.9791412 0.1274816 -0.1582115 0.9791412 0.1274816 -0.1582115 -0.9791412 -0.1274816 0.1582115 -0.9791412 -0.1274816 0.1582115 -0.9791412 -0.1274816 0.1582115 0.9791412 0.1274816 -0.1582115 0.9791412 0.1274816 -0.1582115 0.9791412 0.1274816 -0.1582115 -0.9791412 -0.1274816 0.1582115 -0.9791412 -0.1274816 0.1582115 -0.9791412 -0.1274816 0.1582115 0.9592738 0.1248949 -0.2533674 0.9592738 0.1248949 -0.2533674 0.9592738 0.1248949 -0.2533674 -0.9592738 -0.1248949 0.2533674 -0.9592738 -0.1248949 0.2533674 -0.9592738 -0.1248949 0.2533674 -0.5229016 0.8479008 -0.08739721 -0.5229016 0.8479008 -0.08739721 -0.5229016 0.8479008 -0.08739721 0.5229016 -0.8479008 0.08739721 0.5229016 -0.8479008 0.08739721 0.5229016 -0.8479008 0.08739721 -0.5229016 0.8479008 -0.08739721 -0.5229016 0.8479008 -0.08739721 -0.5229016 0.8479008 -0.08739721 0.5229016 -0.8479008 0.08739721 0.5229016 -0.8479008 0.08739721 0.5229016 -0.8479008 0.08739721 -0.5069722 0.8220708 -0.2591888 -0.5069722 0.8220708 -0.2591888 -0.5069722 0.8220708 -0.2591888 0.5069722 -0.8220708 0.2591888 0.5069722 -0.8220708 0.2591888 0.5069722 -0.8220708 0.2591888 -0.5069722 0.8220708 -0.2591888 -0.5069722 0.8220708 -0.2591888 -0.5069722 0.8220708 -0.2591888 0.5069722 -0.8220708 0.2591888 0.5069722 -0.8220708 0.2591888 0.5069722 -0.8220708 0.2591888 -0.4806944 0.7794606 -0.4017138 -0.4806944 0.7794606 -0.4017138 -0.4806944 0.7794606 -0.4017138 0.4806944 -0.7794606 0.4017138 0.4806944 -0.7794606 0.4017138 0.4806944 -0.7794606 0.4017138 0.7766997 0.6238993 -0.08652846 0.7766997 0.6238993 -0.08652846 0.7766997 0.6238993 -0.08652846 -0.7766997 -0.6238993 0.08652846 -0.7766997 -0.6238993 0.08652846 -0.7766997 -0.6238993 0.08652846 0.7766997 0.6238993 -0.08652846 0.7766997 0.6238993 -0.08652846 0.7766997 0.6238993 -0.08652846 -0.7766997 -0.6238993 0.08652846 -0.7766997 -0.6238993 0.08652846 -0.7766997 -0.6238993 0.08652846 0.7534861 0.6052525 -0.2567648 0.7534861 0.6052525 -0.2567648 0.7534861 0.6052525 -0.2567648 -0.7534861 -0.6052525 0.2567648 -0.7534861 -0.6052525 0.2567648 -0.7534861 -0.6052525 0.2567648 0.7534861 0.6052525 -0.2567648 0.7534861 0.6052525 -0.2567648 0.7534861 0.6052525 -0.2567648 -0.7534861 -0.6052525 0.2567648 -0.7534861 -0.6052525 0.2567648 -0.7534861 -0.6052525 0.2567648 0.7151033 0.5744208 -0.3983315 0.7151033 0.5744208 -0.3983315 0.7151033 0.5744208 -0.3983315 -0.7151033 -0.5744208 0.3983315 -0.7151033 -0.5744208 0.3983315 -0.7151033 -0.5744208 0.3983315 -0.99352 -0.1046161 -0.04442423 -0.99352 -0.1046161 -0.04442423 -0.99352 -0.1046161 -0.04442423 0.99352 0.1046161 0.04442423 0.99352 0.1046161 0.04442423 0.99352 0.1046161 0.04442423 -0.99352 -0.1046161 -0.04442423 -0.99352 -0.1046161 -0.04442423 -0.99352 -0.1046161 -0.04442423 0.99352 0.1046161 0.04442423 0.99352 0.1046161 0.04442423 0.99352 0.1046161 0.04442423 -0.9854276 -0.103764 -0.1347791 -0.9854276 -0.103764 -0.1347791 -0.9854276 -0.103764 -0.1347791 0.9854276 0.103764 0.1347791 0.9854276 0.103764 0.1347791 0.9854276 0.103764 0.1347791 -0.9854276 -0.103764 -0.1347791 -0.9854276 -0.103764 -0.1347791 -0.9854276 -0.103764 -0.1347791 0.9854276 0.103764 0.1347791 0.9854276 0.103764 0.1347791 0.9854276 0.103764 0.1347791 -0.9707954 -0.1022232 -0.2170406 -0.9707954 -0.1022232 -0.2170406 -0.9707954 -0.1022232 -0.2170406 0.9707954 0.1022232 0.2170406 0.9707954 0.1022232 0.2170406 0.9707954 0.1022232 0.2170406 0.9947924 0.08422787 -0.05739189 0.9947924 0.08422787 -0.05739189 0.9947924 0.08422787 -0.05739189 -0.9947924 -0.08422787 0.05739189 -0.9947924 -0.08422787 0.05739189 -0.9947924 -0.08422787 0.05739189 0.9947924 0.08422787 -0.05739189 0.9947924 0.08422787 -0.05739189 0.9947924 0.08422787 -0.05739189 -0.9947924 -0.08422787 0.05739189 -0.9947924 -0.08422787 0.05739189 -0.9947924 -0.08422787 0.05739189 0.981378 0.0830921 -0.1731844 0.981378 0.0830921 -0.1731844 0.981378 0.0830921 -0.1731844 -0.981378 -0.0830921 0.1731844 -0.981378 -0.0830921 0.1731844 -0.981378 -0.0830921 0.1731844 0.981378 0.0830921 -0.1731844 0.981378 0.0830921 -0.1731844 0.981378 0.0830921 -0.1731844 -0.981378 -0.0830921 0.1731844 -0.981378 -0.0830921 0.1731844 -0.981378 -0.0830921 0.1731844 0.9576598 0.08108391 -0.2762481 0.9576598 0.08108391 -0.2762481 0.9576598 0.08108391 -0.2762481 -0.9576598 -0.08108391 0.2762481 -0.9576598 -0.08108391 0.2762481 -0.9576598 -0.08108391 0.2762481 0.9333599 -0.3558512 -0.04700191 0.9333599 -0.3558512 -0.04700191 0.9333599 -0.3558512 -0.04700191 -0.9333599 0.3558512 0.04700191 -0.9333599 0.3558512 0.04700191 -0.9333599 0.3558512 0.04700191 0.9333599 -0.3558512 -0.04700191 0.9333599 -0.3558512 -0.04700191 0.9333599 -0.3558512 -0.04700191 -0.9333599 0.3558512 0.04700191 -0.9333599 0.3558512 0.04700191 -0.9333599 0.3558512 0.04700191 0.9248621 -0.3526113 -0.1424616 0.9248621 -0.3526113 -0.1424616 0.9248621 -0.3526113 -0.1424616 -0.9248621 0.3526113 0.1424616 -0.9248621 0.3526113 0.1424616 -0.9248621 0.3526113 0.1424616 0.9248621 -0.3526113 -0.1424616 0.9248621 -0.3526113 -0.1424616 0.9248621 -0.3526113 -0.1424616 -0.9248621 0.3526113 0.1424616 -0.9248621 0.3526113 0.1424616 -0.9248621 0.3526113 0.1424616 0.9095588 -0.3467768 -0.2290167 0.9095588 -0.3467768 -0.2290167 0.9095588 -0.3467768 -0.2290167 -0.9095588 0.3467768 0.2290167 -0.9095588 0.3467768 0.2290167 -0.9095588 0.3467768 0.2290167 0.6138341 0.7870952 -0.06073594 0.6138341 0.7870952 -0.06073594 0.6138341 0.7870952 -0.06073594 -0.6138341 -0.7870952 0.06073594 -0.6138341 -0.7870952 0.06073594 -0.6138341 -0.7870952 0.06073594 0.6138341 0.7870952 -0.06073594 0.6138341 0.7870952 -0.06073594 0.6138341 0.7870952 -0.06073594 -0.6138341 -0.7870952 0.06073594 -0.6138341 -0.7870952 0.06073594 -0.6138341 -0.7870952 0.06073594 0.6045865 0.7752373 -0.1829817 0.6045865 0.7752373 -0.1829817 0.6045865 0.7752373 -0.1829817 -0.6045865 -0.7752373 0.1829817 -0.6045865 -0.7752373 0.1829817 -0.6045865 -0.7752373 0.1829817 0.6045865 0.7752373 -0.1829817 0.6045865 0.7752373 -0.1829817 0.6045865 0.7752373 -0.1829817 -0.6045865 -0.7752373 0.1829817 -0.6045865 -0.7752373 0.1829817 -0.6045865 -0.7752373 0.1829817 0.5883426 0.7544085 -0.2910684 0.5883426 0.7544085 -0.2910684 0.5883426 0.7544085 -0.2910684 -0.5883426 -0.7544085 0.2910684 -0.5883426 -0.7544085 0.2910684 -0.5883426 -0.7544085 0.2910684 -0.9255797 0.3711847 -0.07432515 -0.9255797 0.3711847 -0.07432515 -0.9255797 0.3711847 -0.07432515 0.9255797 -0.3711847 0.07432515 0.9255797 -0.3711847 0.07432515 0.9255797 -0.3711847 0.07432515 -0.9255797 0.3711847 -0.07432515 -0.9255797 0.3711847 -0.07432515 -0.9255797 0.3711847 -0.07432515 0.9255797 -0.3711847 0.07432515 0.9255797 -0.3711847 0.07432515 0.9255797 -0.3711847 0.07432515 -0.9049283 0.3629029 -0.222275 -0.9049283 0.3629029 -0.222275 -0.9049283 0.3629029 -0.222275 0.9049283 -0.3629029 0.222275 0.9049283 -0.3629029 0.222275 0.9049283 -0.3629029 0.222275 -0.9049283 0.3629029 -0.222275 -0.9049283 0.3629029 -0.222275 -0.9049283 0.3629029 -0.222275 0.9049283 -0.3629029 0.222275 0.9049283 -0.3629029 0.222275 0.9049283 -0.3629029 0.222275 -0.8697192 0.348783 -0.3491975 -0.8697192 0.348783 -0.3491975 -0.8697192 0.348783 -0.3491975 0.8697192 -0.348783 0.3491975 0.8697192 -0.348783 0.3491975 0.8697192 -0.348783 0.3491975 0.7682409 -0.6354605 -0.07743318 0.7682409 -0.6354605 -0.07743318 0.7682409 -0.6354605 -0.07743318 -0.7682409 0.6354605 0.07743318 -0.7682409 0.6354605 0.07743318 -0.7682409 0.6354605 0.07743318 0.7682409 -0.6354605 -0.07743318 0.7682409 -0.6354605 -0.07743318 0.7682409 -0.6354605 -0.07743318 -0.7682409 0.6354605 0.07743318 -0.7682409 0.6354605 0.07743318 -0.7682409 0.6354605 0.07743318 0.7496892 -0.6201152 -0.2311348 0.7496892 -0.6201152 -0.2311348 0.7496892 -0.6201152 -0.2311348 -0.7496892 0.6201152 0.2311348 -0.7496892 0.6201152 0.2311348 -0.7496892 0.6201152 0.2311348 0.7496892 -0.6201152 -0.2311348 0.7496892 -0.6201152 -0.2311348 0.7496892 -0.6201152 -0.2311348 -0.7496892 0.6201152 0.2311348 -0.7496892 0.6201152 0.2311348 -0.7496892 0.6201152 0.2311348 0.7182954 -0.5941475 -0.3619952 0.7182954 -0.5941475 -0.3619952 0.7182954 -0.5941475 -0.3619952 -0.7182954 0.5941475 0.3619952 -0.7182954 0.5941475 0.3619952 -0.7182954 0.5941475 0.3619952 -0.5980994 -0.7917115 -0.1243783 -0.5980994 -0.7917115 -0.1243783 -0.5980994 -0.7917115 -0.1243783 0.5980994 0.7917115 0.1243783 0.5980994 0.7917115 0.1243783 0.5980994 0.7917115 0.1243783 -0.5980994 -0.7917115 -0.1243783 -0.5980994 -0.7917115 -0.1243783 -0.5980994 -0.7917115 -0.1243783 0.5980994 0.7917115 0.1243783 0.5980994 0.7917115 0.1243783 0.5980994 0.7917115 0.1243783 -0.5628256 -0.7450192 -0.3580136 -0.5628256 -0.7450192 -0.3580136 -0.5628256 -0.7450192 -0.3580136 0.5628256 0.7450192 0.3580136 0.5628256 0.7450192 0.3580136 0.5628256 0.7450192 0.3580136 -0.5628256 -0.7450192 -0.3580136 -0.5628256 -0.7450192 -0.3580136 -0.5628256 -0.7450192 -0.3580136 0.5628256 0.7450192 0.3580136 0.5628256 0.7450192 0.3580136 0.5628256 0.7450192 0.3580136 -0.5107524 -0.6760893 -0.5310699 -0.5107524 -0.6760893 -0.5310699 -0.5107524 -0.6760893 -0.5310699 0.5107524 0.6760893 0.5310699 0.5107524 0.6760893 0.5310699 0.5107524 0.6760893 0.5310699 -0.6016801 0.7944257 -0.08287912 -0.6016801 0.7944257 -0.08287912 -0.6016801 0.7944257 -0.08287912 0.6016801 -0.7944257 0.08287912 0.6016801 -0.7944257 0.08287912 0.6016801 -0.7944257 0.08287912 -0.6016801 0.7944257 -0.08287912 -0.6016801 0.7944257 -0.08287912 -0.6016801 0.7944257 -0.08287912 0.6016801 -0.7944257 0.08287912 0.6016801 -0.7944257 0.08287912 0.6016801 -0.7944257 0.08287912 -0.5851215 0.7725626 -0.2465358 -0.5851215 0.7725626 -0.2465358 -0.5851215 0.7725626 -0.2465358 0.5851215 -0.7725626 0.2465358 0.5851215 -0.7725626 0.2465358 0.5851215 -0.7725626 0.2465358 -0.5851215 0.7725626 -0.2465358 -0.5851215 0.7725626 -0.2465358 -0.5851215 0.7725626 -0.2465358 0.5851215 -0.7725626 0.2465358 0.5851215 -0.7725626 0.2465358 0.5851215 -0.7725626 0.2465358 -0.5574806 0.7360671 -0.383954 -0.5574806 0.7360671 -0.383954 -0.5574806 0.7360671 -0.383954 0.5574806 -0.7360671 0.383954 0.5574806 -0.7360671 0.383954 0.5574806 -0.7360671 0.383954 -0.5473216 -0.8358353 -0.04264204 -0.5473216 -0.8358353 -0.04264204 -0.5473216 -0.8358353 -0.04264204 0.5473216 0.8358353 0.04264204 0.5473216 0.8358353 0.04264204 0.5473216 0.8358353 0.04264204 -0.5473216 -0.8358353 -0.04264204 -0.5473216 -0.8358353 -0.04264204 -0.5473216 -0.8358353 -0.04264204 0.5473216 0.8358353 0.04264204 0.5473216 0.8358353 0.04264204 0.5473216 0.8358353 0.04264204 -0.5432102 -0.8295566 -0.1294547 -0.5432102 -0.8295566 -0.1294547 -0.5432102 -0.8295566 -0.1294547 0.5432102 0.8295566 0.1294547 0.5432102 0.8295566 0.1294547 0.5432102 0.8295566 0.1294547 -0.5432102 -0.8295566 -0.1294547 -0.5432102 -0.8295566 -0.1294547 -0.5432102 -0.8295566 -0.1294547 0.5432102 0.8295566 0.1294547 0.5432102 0.8295566 0.1294547 0.5432102 0.8295566 0.1294547 -0.5357562 -0.8181733 -0.2087049 -0.5357562 -0.8181733 -0.2087049 -0.5357562 -0.8181733 -0.2087049 0.5357562 0.8181733 0.2087049 0.5357562 0.8181733 0.2087049 0.5357562 0.8181733 0.2087049 -0.936076 -0.3464199 -0.06127739 -0.936076 -0.3464199 -0.06127739 -0.936076 -0.3464199 -0.06127739 0.936076 0.3464199 0.06127739 0.936076 0.3464199 0.06127739 0.936076 0.3464199 0.06127739 -0.936076 -0.3464199 -0.06127739 -0.936076 -0.3464199 -0.06127739 -0.936076 -0.3464199 -0.06127739 0.936076 0.3464199 0.06127739 0.936076 0.3464199 0.06127739 0.936076 0.3464199 0.06127739 -0.9217269 -0.3411096 -0.1845635 -0.9217269 -0.3411096 -0.1845635 -0.9217269 -0.3411096 -0.1845635 0.9217269 0.3411096 0.1845635 0.9217269 0.3411096 0.1845635 0.9217269 0.3411096 0.1845635 -0.9217269 -0.3411096 -0.1845635 -0.9217269 -0.3411096 -0.1845635 -0.9217269 -0.3411096 -0.1845635 0.9217269 0.3411096 0.1845635 0.9217269 0.3411096 0.1845635 0.9217269 0.3411096 0.1845635 -0.8965497 -0.3317921 -0.2934496 -0.8965497 -0.3317921 -0.2934496 -0.8965497 -0.3317921 -0.2934496 0.8965497 0.3317921 0.2934496 0.8965497 0.3317921 0.2934496 0.8965497 0.3317921 0.2934496 0.925305 -0.3711409 -0.07787928 0.925305 -0.3711409 -0.07787928 0.925305 -0.3711409 -0.07787928 -0.925305 0.3711409 0.07787928 -0.925305 0.3711409 0.07787928 -0.925305 0.3711409 0.07787928 0.925305 -0.3711409 -0.07787928 0.925305 -0.3711409 -0.07787928 0.925305 -0.3711409 -0.07787928 -0.925305 0.3711409 0.07787928 -0.925305 0.3711409 0.07787928 -0.925305 0.3711409 0.07787928 0.9027116 -0.3620787 -0.2324023 0.9027116 -0.3620787 -0.2324023 0.9027116 -0.3620787 -0.2324023 -0.9027116 0.3620787 0.2324023 -0.9027116 0.3620787 0.2324023 -0.9027116 0.3620787 0.2324023 0.9027116 -0.3620787 -0.2324023 0.9027116 -0.3620787 -0.2324023 0.9027116 -0.3620787 -0.2324023 -0.9027116 0.3620787 0.2324023 -0.9027116 0.3620787 0.2324023 -0.9027116 0.3620787 0.2324023 0.8645202 -0.34676 -0.3638163 0.8645202 -0.34676 -0.3638163 0.8645202 -0.34676 -0.3638163 -0.8645202 0.34676 0.3638163 -0.8645202 0.34676 0.3638163 -0.8645202 0.34676 0.3638163 -0.7034073 -0.6996829 -0.1251477 -0.7034073 -0.6996829 -0.1251477 -0.7034073 -0.6996829 -0.1251477 0.7034073 0.6996829 0.1251477 0.7034073 0.6996829 0.1251477 0.7034073 0.6996829 0.1251477 -0.7034073 -0.6996829 -0.1251477 -0.7034073 -0.6996829 -0.1251477 -0.7034073 -0.6996829 -0.1251477 0.7034073 0.6996829 0.1251477 0.7034073 0.6996829 0.1251477 0.7034073 0.6996829 0.1251477 -0.6614532 -0.657951 -0.3599725 -0.6614532 -0.657951 -0.3599725 -0.6614532 -0.657951 -0.3599725 0.6614532 0.657951 0.3599725 0.6614532 0.657951 0.3599725 0.6614532 0.657951 0.3599725 -0.6614532 -0.657951 -0.3599725 -0.6614532 -0.657951 -0.3599725 -0.6614532 -0.657951 -0.3599725 0.6614532 0.657951 0.3599725 0.6614532 0.657951 0.3599725 0.6614532 0.657951 0.3599725 -0.5996745 -0.5964994 -0.5334595 -0.5996745 -0.5964994 -0.5334595 -0.5996745 -0.5964994 -0.5334595 0.5996745 0.5964994 0.5334595 0.5996745 0.5964994 0.5334595 0.5996745 0.5964994 0.5334595 -0.6373325 0.768797 -0.05252073 -0.6373325 0.768797 -0.05252073 -0.6373325 0.768797 -0.05252073 0.6373325 -0.768797 0.05252073 0.6373325 -0.768797 0.05252073 0.6373325 -0.768797 0.05252073 -0.6373325 0.768797 -0.05252073 -0.6373325 0.768797 -0.05252073 -0.6373325 0.768797 -0.05252073 0.6373325 -0.768797 0.05252073 0.6373325 -0.768797 0.05252073 0.6373325 -0.768797 0.05252073 -0.6301117 0.7600867 -0.1588315 -0.6301117 0.7600867 -0.1588315 -0.6301117 0.7600867 -0.1588315 0.6301117 -0.7600867 0.1588315 0.6301117 -0.7600867 0.1588315 0.6301117 -0.7600867 0.1588315 -0.6301117 0.7600867 -0.1588315 -0.6301117 0.7600867 -0.1588315 -0.6301117 0.7600867 -0.1588315 0.6301117 -0.7600867 0.1588315 0.6301117 -0.7600867 0.1588315 0.6301117 -0.7600867 0.1588315 -0.6172289 0.7445466 -0.2543203 -0.6172289 0.7445466 -0.2543203 -0.6172289 0.7445466 -0.2543203 0.6172289 -0.7445466 0.2543203 0.6172289 -0.7445466 0.2543203 0.6172289 -0.7445466 0.2543203 0.3086229 -0.9416425 -0.1343926 0.3086229 -0.9416425 -0.1343926 0.3086229 -0.9416425 -0.1343926 -0.3086229 0.9416425 0.1343926 -0.3086229 0.9416425 0.1343926 -0.3086229 0.9416425 0.1343926 0.3086229 -0.9416425 -0.1343926 0.3086229 -0.9416425 -0.1343926 0.3086229 -0.9416425 -0.1343926 -0.3086229 0.9416425 0.1343926 -0.3086229 0.9416425 0.1343926 -0.3086229 0.9416425 0.1343926 0.2876763 -0.877732 -0.3831826 0.2876763 -0.877732 -0.3831826 0.2876763 -0.877732 -0.3831826 -0.2876763 0.877732 0.3831826 -0.2876763 0.877732 0.3831826 -0.2876763 0.877732 0.3831826 0.2876763 -0.877732 -0.3831826 0.2876763 -0.877732 -0.3831826 0.2876763 -0.877732 -0.3831826 -0.2876763 0.877732 0.3831826 -0.2876763 0.877732 0.3831826 -0.2876763 0.877732 0.3831826 0.2577706 -0.7864865 -0.5612426 0.2577706 -0.7864865 -0.5612426 0.2577706 -0.7864865 -0.5612426 -0.2577706 0.7864865 0.5612426 -0.2577706 0.7864865 0.5612426 -0.2577706 0.7864865 0.5612426 -0.697674 0.7072956 -0.1139476 -0.697674 0.7072956 -0.1139476 -0.697674 0.7072956 -0.1139476 0.697674 -0.7072956 0.1139476 0.697674 -0.7072956 0.1139476 0.697674 -0.7072956 0.1139476 -0.697674 0.7072956 -0.1139476 -0.697674 0.7072956 -0.1139476 -0.697674 0.7072956 -0.1139476 0.697674 -0.7072956 0.1139476 0.697674 -0.7072956 0.1139476 0.697674 -0.7072956 0.1139476 -0.6626507 0.6717893 -0.3310485 -0.6626507 0.6717893 -0.3310485 -0.6626507 0.6717893 -0.3310485 0.6626507 -0.6717893 0.3310485 0.6626507 -0.6717893 0.3310485 0.6626507 -0.6717893 0.3310485 -0.6626507 0.6717893 -0.3310485 -0.6626507 0.6717893 -0.3310485 -0.6626507 0.6717893 -0.3310485 0.6626507 -0.6717893 0.3310485 0.6626507 -0.6717893 0.3310485 0.6626507 -0.6717893 0.3310485 -0.6091847 0.6175859 -0.4974753 -0.6091847 0.6175859 -0.4974753 -0.6091847 0.6175859 -0.4974753 0.6091847 -0.6175859 0.4974753 0.6091847 -0.6175859 0.4974753 0.6091847 -0.6175859 0.4974753 0.3070865 -0.9493922 -0.06597201 0.3070865 -0.9493922 -0.06597201 0.3070865 -0.9493922 -0.06597201 -0.3070865 0.9493922 0.06597201 -0.3070865 0.9493922 0.06597201 -0.3070865 0.9493922 0.06597201 0.3070865 -0.9493922 -0.06597201 0.3070865 -0.9493922 -0.06597201 0.3070865 -0.9493922 -0.06597201 -0.3070865 0.9493922 0.06597201 -0.3070865 0.9493922 0.06597201 -0.3070865 0.9493922 0.06597201 0.30165 -0.9325848 -0.1982243 0.30165 -0.9325848 -0.1982243 0.30165 -0.9325848 -0.1982243 -0.30165 0.9325848 0.1982243 -0.30165 0.9325848 0.1982243 -0.30165 0.9325848 0.1982243 0.30165 -0.9325848 -0.1982243 0.30165 -0.9325848 -0.1982243 0.30165 -0.9325848 -0.1982243 -0.30165 0.9325848 0.1982243 -0.30165 0.9325848 0.1982243 -0.30165 0.9325848 0.1982243 0.2922043 -0.9033823 -0.3138742 0.2922043 -0.9033823 -0.3138742 0.2922043 -0.9033823 -0.3138742 -0.2922043 0.9033823 0.3138742 -0.2922043 0.9033823 0.3138742 -0.2922043 0.9033823 0.3138742 -0.7534474 0.6456018 -0.1245607 -0.7534474 0.6456018 -0.1245607 -0.7534474 0.6456018 -0.1245607 0.7534474 -0.6456018 0.1245607 0.7534474 -0.6456018 0.1245607 0.7534474 -0.6456018 0.1245607 -0.7534474 0.6456018 -0.1245607 -0.7534474 0.6456018 -0.1245607 -0.7534474 0.6456018 -0.1245607 0.7534474 -0.6456018 0.1245607 0.7534474 -0.6456018 0.1245607 0.7534474 -0.6456018 0.1245607 -0.7088927 0.6074245 -0.3584783 -0.7088927 0.6074245 -0.3584783 -0.7088927 0.6074245 -0.3584783 0.7088927 -0.6074245 0.3584783 0.7088927 -0.6074245 0.3584783 0.7088927 -0.6074245 0.3584783 -0.7088927 0.6074245 -0.3584783 -0.7088927 0.6074245 -0.3584783 -0.7088927 0.6074245 -0.3584783 0.7088927 -0.6074245 0.3584783 0.7088927 -0.6074245 0.3584783 0.7088927 -0.6074245 0.3584783 -0.6431578 0.5510986 -0.5316374 -0.6431578 0.5510986 -0.5316374 -0.6431578 0.5510986 -0.5316374 0.6431578 -0.5510986 0.5316374 0.6431578 -0.5510986 0.5316374 0.6431578 -0.5510986 0.5316374 0.8040534 0.5916945 -0.0582722 0.8040534 0.5916945 -0.0582722 0.8040534 0.5916945 -0.0582722 -0.8040534 -0.5916945 0.0582722 -0.8040534 -0.5916945 0.0582722 -0.8040534 -0.5916945 0.0582722 0.8040534 0.5916945 -0.0582722 0.8040534 0.5916945 -0.0582722 0.8040534 0.5916945 -0.0582722 -0.8040534 -0.5916945 0.0582722 -0.8040534 -0.5916945 0.0582722 -0.8040534 -0.5916945 0.0582722 0.7928829 0.5834743 -0.1757681 0.7928829 0.5834743 -0.1757681 0.7928829 0.5834743 -0.1757681 -0.7928829 -0.5834743 0.1757681 -0.7928829 -0.5834743 0.1757681 -0.7928829 -0.5834743 0.1757681 0.7928829 0.5834743 -0.1757681 0.7928829 0.5834743 -0.1757681 0.7928829 0.5834743 -0.1757681 -0.7928829 -0.5834743 0.1757681 -0.7928829 -0.5834743 0.1757681 -0.7928829 -0.5834743 0.1757681 0.7731656 0.5689645 -0.2801683 0.7731656 0.5689645 -0.2801683 0.7731656 0.5689645 -0.2801683 -0.7731656 -0.5689645 0.2801683 -0.7731656 -0.5689645 0.2801683 -0.7731656 -0.5689645 0.2801683</float_array><technique_common><accessor source="#g0n-array" count="720" stride="3"><param name="X" type="float" /><param name="Y" type="float" /><param name="Z" type="float" /></accessor></technique_common></source><source id="g0uv"><float_array id="g0uv-array" count="1440">0 0 1 0 1 0.3333333 1 0.3333333 1 0 0 0 0 0 1 0.3333333 0 0.3333333 0 0.3333333 1 0.3333333 0 0 0 0.3333333 1 0.3333333 1 0.6666667 1 0.6666667 1 0.3333333 0 0.3333333 0 0.3333333 1 0.6666667 0 0.6666667 0 0.6666667 1 0.6666667 0 0.3333333 0 0.6666667 1 0.6666667 1 1 1 1 1 0.6666667 0 0.6666667 0 0 1 0 1 0.3333333 1 0.3333333 1 0 0 0 0 0 1 0.3333333 0 0.3333333 0 0.3333333 1 0.3333333 0 0 0 0.3333333 1 0.3333333 1 0.6666667 1 0.6666667 1 0.3333333 0 0.3333333 0 0.3333333 1 0.6666667 0 0.6666667 0 0.6666667 1 0.6666667 0 0.3333333 0 0.6666667 1 0.6666667 1 1 1 1 1 0.6666667 0 0.6666667 0 0 1 0 1 0.3333333 1 0.3333333 1 0 0 0 0 0 1 0.3333333 0 0.3333333 0 0.3333333 1 0.3333333 0 0 0 0.3333333 1 0.3333333 1 0.6666667 1 0.6666667 1 0.3333333 0 0.3333333 0 0.3333333 1 0.6666667 0 0.6666667 0 0.6666667 1 0.6666667 0 0.3333333 0 0.6666667 1 0.6666667 1 1 1 1 1 0.6666667 0 0.6666667 0 0 1 0 1 0.3333333 1 0.3333333 1 0 0 0 0 0 1 0.3333333 0 0.3333333 0 0.3333333 1 0.3333333 0 0 0 0.3333333 1 0.3333333 1 0.6666667 1 0.6666667 1 0.3333333 0 0.3333333 0 0.3333333 1 0.6666667 0 0.6666667 0 0.6666667 1 0.6666667 0 0.3333333 0 0.6666667 1 0.6666667 1 1 1 1 1 0.6666667 0 0.6666667 0 0 1 0 1 0.3333333 1 0.3333333 1 0 0 0 0 0 1 0.3333333 0 0.3333333 0 0.3333333 1 0.3333333 0 0 0 0.3333333 1 0.3333333 1 0.6666667 1 0.6666667 1 0.3333333 0 0.3333333 0 0.3333333 1 0.6666667 0 0.6666667 0 0.6666667 1 0.6666667 0 0.3333333 0 0.6666667 1 0.6666667 1 1 1 1 1 0.6666667 0 0.6666667 0 0 1 0 1 0.3333333 1 0.3333333 1 0 0 0 0 0 1 0.3333333 0 0.3333333 0 0.3333333 1 0.3333333 0 0 0 0.3333333 1 0.3333333 1 0.6666667 1 0.6666667 1 0.3333333 0 0.3333333 0 0.3333333 1 0.6666667 0 0.6666667 0 0.6666667 1 0.6666667 0 0.3333333 0 0.6666667 1 0.6666667 1 1 1 1 1 0.6666667 0 0.6666667 0 0 1 0 1 0.3333333 1 0.3333333 1 0 0 0 0 0 1 0.3333333 0 0.3333333 0 0.3333333 1 0.3333333 0 0 0 0.3333333 1 0.3333333 1 0.6666667 1 0.6666667 1 0.3333333 0 0.3333333 0 0.3333333 1 0.6666667 0 0.6666667 0 0.6666667 1 0.6666667 0 0.3333333 0 0.6666667 1 0.6666667 1 1 1 1 1 0.6666667 0 0.6666667 0 0 1 0 1 0.3333333 1 0.3333333 1 0 0 0 0 0 1 0.3333333 0 0.3333333 0 0.3333333 1 0.3333333 0 0 0 0.3333333 1 0.3333333 1 0.6666667 1 0.6666667 1 0.3333333 0 0.3333333 0 0.3333333 1 0.6666667 0 0.6666667 0 0.6666667 1 0.6666667 0 0.3333333 0 0.6666667 1 0.6666667 1 1 1 1 1 0.6666667 0 0.6666667 0 0 1 0 1 0.3333333 1 0.3333333 1 0 0 0 0 0 1 0.3333333 0 0.3333333 0 0.3333333 1 0.3333333 0 0 0 0.3333333 1 0.3333333 1 0.6666667 1 0.6666667 1 0.3333333 0 0.3333333 0 0.3333333 1 0.6666667 0 0.6666667 0 0.6666667 1 0.6666667 0 0.3333333 0 0.6666667 1 0.6666667 1 1 1 1 1 0.6666667 0 0.6666667 0 0 1 0 1 0.3333333 1 0.3333333 1 0 0 0 0 0 1 0.3333333 0 0.3333333 0 0.3333333 1 0.3333333 0 0 0 0.3333333 1 0.3333333 1 0.6666667 1 0.6666667 1 0.3333333 0 0.3333333 0 0.3333333 1 0.6666667 0 0.6666667 0 0.6666667 1 0.6666667 0 0.3333333 0 0.6666667 1 0.6666667 1 1 1 1 1 0.6666667 0 0.6666667 0 0 1 0 1 0.3333333 1 0.3333333 1 0 0 0 0 0 1 0.3333333 0 0.3333333 0 0.3333333 1 0.3333333 0 0 0 0.3333333 1 0.3333333 1 0.6666667 1 0.6666667 1 0.3333333 0 0.3333333 0 0.3333333 1 0.6666667 0 0.6666667 0 0.6666667 1 0.6666667 0 0.3333333 0 0.6666667 1 0.6666667 1 1 1 1 1 0.6666667 0 0.6666667 0 0 1 0 1 0.3333333 1 0.3333333 1 0 0 0 0 0 1 0.3333333 0 0.3333333 0 0.3333333 1 0.3333333 0 0 0 0.3333333 1 0.3333333 1 0.6666667 1 0.6666667 1 0.3333333 0 0.3333333 0 0.3333333 1 0.6666667 0 0.6666667 0 0.6666667 1 0.6666667 0 0.3333333 0 0.6666667 1 0.6666667 1 1 1 1 1 0.6666667 0 0.6666667 0 0 1 0 1 0.3333333 1 0.3333333 1 0 0 0 0 0 1 0.3333333 0 0.3333333 0 0.3333333 1 0.3333333 0 0 0 0.3333333 1 0.3333333 1 0.6666667 1 0.6666667 1 0.3333333 0 0.3333333 0 0.3333333 1 0.6666667 0 0.6666667 0 0.6666667 1 0.6666667 0 0.3333333 0 0.6666667 1 0.6666667 1 1 1 1 1 0.6666667 0 0.6666667 0 0 1 0 1 0.3333333 1 0.3333333 1 0 0 0 0 0 1 0.3333333 0 0.3333333 0 0.3333333 1 0.3333333 0 0 0 0.3333333 1 0.3333333 1 0.6666667 1 0.6666667 1 0.3333333 0 0.3333333 0 0.3333333 1 0.6666667 0 0.6666667 0 0.6666667 1 0.6666667 0 0.3333333 0 0.6666667 1 0.6666667 1 1 1 1 1 0.6666667 0 0.6666667 0 0 1 0 1 0.3333333 1 0.3333333 1 0 0 0 0 0 1 0.3333333 0 0.3333333 0 0.3333333 1 0.3333333 0 0 0 0.3333333 1 0.3333333 1 0.6666667 1 0.6666667 1 0.3333333 0 0.3333333 0 0.3333333 1 0.6666667 0 0.6666667 0 0.6666667 1 0.6666667 0 0.3333333 0 0.6666667 1 0.6666667 1 1 1 1 1 0.6666667 0 0.6666667 0 0 1 0 1 0.3333333 1 0.3333333 1 0 0 0 0 0 1 0.3333333 0 0.3333333 0 0.3333333 1 0.3333333 0 0 0 0.3333333 1 0.3333333 1 0.6666667 1 0.6666667 1 0.3333333 0 0.3333333 0 0.3333333 1 0.6666667 0 0.6666667 0 0.6666667 1 0.6666667 0 0.3333333 0 0.6666667 1 0.6666667 1 1 1 1 1 0.6666667 0 0.6666667 0 0 1 0 1 0.3333333 1 0.3333333 1 0 0 0 0 0 1 0.3333333 0 0.3333333 0 0.3333333 1 0.3333333 0 0 0 0.3333333 1 0.3333333 1 0.6666667 1 0.6666667 1 0.3333333 0 0.3333333 0 0.3333333 1 0.6666667 0 0.6666667 0 0.6666667 1 0.6666667 0 0.3333333 0 0.6666667 1 0.6666667 1 1 1 1 1 0.6666667 0 0.6666667 0 0 1 0 1 0.3333333 1 0.3333333 1 0 0 0 0 0 1 0.3333333 0 0.3333333 0 0.3333333 1 0.3333333 0 0 0 0.3333333 1 0.3333333 1 0.6666667 1 0.6666667 1 0.3333333 0 0.3333333 0 0.3333333 1 0.6666667 0 0.6666667 0 0.6666667 1 0.6666667 0 0.3333333 0 0.6666667 1 0.6666667 1 1 1 1 1 0.6666667 0 0.6666667 0 0 1 0 1 0.3333333 1 0.3333333 1 0 0 0 0 0 1 0.3333333 0 0.3333333 0 0.3333333 1 0.3333333 0 0 0 0.3333333 1 0.3333333 1 0.6666667 1 0.6666667 1 0.3333333 0 0.3333333 0 0.3333333 1 0.6666667 0 0.6666667 0 0.6666667 1 0.6666667 0 0.3333333 0 0.6666667 1 0.6666667 1 1 1 1 1 0.6666667 0 0.6666667 0 0 1 0 1 0.3333333 1 0.3333333 1 0 0 0 0 0 1 0.3333333 0 0.3333333 0 0.3333333 1 0.3333333 0 0 0 0.3333333 1 0.3333333 1 0.6666667 1 0.6666667 1 0.3333333 0 0.3333333 0 0.3333333 1 0.6666667 0 0.6666667 0 0.6666667 1 0.6666667 0 0.3333333 0 0.6666667 1 0.6666667 1 1 1 1 1 0.6666667 0 0.6666667 0 0 1 0 1 0.3333333 1 0.3333333 1 0 0 0 0 0 1 0.3333333 0 0.3333333 0 0.3333333 1 0.3333333 0 0 0 0.3333333 1 0.3333333 1 0.6666667 1 0.6666667 1 0.3333333 0 0.3333333 0 0.3333333 1 0.6666667 0 0.6666667 0 0.6666667 1 0.6666667 0 0.3333333 0 0.6666667 1 0.6666667 1 1 1 1 1 0.6666667 0 0.6666667 0 0 1 0 1 0.3333333 1 0.3333333 1 0 0 0 0 0 1 0.3333333 0 0.3333333 0 0.3333333 1 0.3333333 0 0 0 0.3333333 1 0.3333333 1 0.6666667 1 0.6666667 1 0.3333333 0 0.3333333 0 0.3333333 1 0.6666667 0 0.6666667 0 0.6666667 1 0.6666667 0 0.3333333 0 0.6666667 1 0.6666667 1 1 1 1 1 0.6666667 0 0.6666667 0 0 1 0 1 0.3333333 1 0.3333333 1 0 0 0 0 0 1 0.3333333 0 0.3333333 0 0.3333333 1 0.3333333 0 0 0 0.3333333 1 0.3333333 1 0.6666667 1 0.6666667 1 0.3333333 0 0.3333333 0 0.3333333 1 0.6666667 0 0.6666667 0 0.6666667 1 0.6666667 0 0.3333333 0 0.6666667 1 0.6666667 1 1 1 1 1 0.6666667 0 0.6666667 0 0 1 0 1 0.3333333 1 0.3333333 1 0 0 0 0 0 1 0.3333333 0 0.3333333 0 0.3333333 1 0.3333333 0 0 0 0.3333333 1 0.3333333 1 0.6666667 1 0.6666667 1 0.3333333 0 0.3333333 0 0.3333333 1 0.6666667 0 0.6666667 0 0.6666667 1 0.6666667 0 0.3333333 0 0.6666667 1 0.6666667 1 1 1 1 1 0.6666667 0 0.6666667</float_array><technique_common><accessor source="#g0uv-array" count="720" stride="2"><param name="S" type="float" /><param name="T" type="float" /></accessor></technique_common></source><vertices id="g0-vertices"><input semantic="POSITION" source="#g0p" /></vertices><triangles count="240" material="m1-slot"><input semantic="VERTEX" source="#g0-vertices" offset="0" /><input semantic="NORMAL" source="#g0n" offset="1" /><input semantic="TEXCOORD" source="#g0uv" offset="2" set="0" /><p>0 0 0 1 1 1 2 2 2 3 3 3 4 4 4 5 5 5 6 6 6 7 7 7 8 8 8 9 9 9 10 10 10 11 11 11 12 12 12 13 13 13 14 14 14 15 15 15 16 16 16 17 17 17 18 18 18 19 19 19 20 20 20 21 21 21 22 22 22 23 23 23 24 24 24 25 25 25 26 26 26 27 27 27 28 28 28 29 29 29 30 30 30 31 31 31 32 32 32 33 33 33 34 34 34 35 35 35 36 36 36 37 37 37 38 38 38 39 39 39 40 40 40 41 41 41 42 42 42 43 43 43 44 44 44 45 45 45 46 46 46 47 47 47 48 48 48 49 49 49 50 50 50 51 51 51 52 52 52 53 53 53 54 54 54 55 55 55 56 56 56 57 57 57 58 58 58 59 59 59 60 60 60 61 61 61 62 62 62 63 63 63 64 64 64 65 65 65 66 66 66 67 67 67 68 68 68 69 69 69 70 70 70 71 71 71 72 72 72 73 73 73 74 74 74 75 75 75 76 76 76 77 77 77 78 78 78 79 79 79 80 80 80 81 81 81 82 82 82 83 83 83 84 84 84 85 85 85 86 86 86 87 87 87 88 88 88 89 89 89 90 90 90 91 91 91 92 92 92 93 93 93 94 94 94 95 95 95 96 96 96 97 97 97 98 98 98 99 99 99 100 100 100 101 101 101 102 102 102 103 103 103 104 104 104 105 105 105 106 106 106 107 107 107 108 108 108 109 109 109 110 110 110 111 111 111 112 112 112 113 113 113 114 114 114 115 115 115 116 116 116 117 117 117 118 118 118 119 119 119 120 120 120 121 121 121 122 122 122 123 123 123 124 124 124 125 125 125 126 126 126 127 127 127 128 128 128 129 129 129 130 130 130 131 131 131 132 132 132 133 133 133 134 134 134 135 135 135 136 136 136 137 137 137 138 138 138 139 139 139 140 140 140 141 141 141 142 142 142 143 143 143 144 144 144 145 145 145 146 146 146 147 147 147 148 148 148 149 149 149 150 150 150 151 151 151 152 152 152 153 153 153 154 154 154 155 155 155 156 156 156 157 157 157 158 158 158 159 159 159 160 160 160 161 161 161 162 162 162 163 163 163 164 164 164 165 165 165 166 166 166 167 167 167 168 168 168 169 169 169 170 170 170 171 171 171 172 172 172 173 173 173 174 174 174 175 175 175 176 176 176 177 177 177 178 178 178 179 179 179 180 180 180 181 181 181 182 182 182 183 183 183 184 184 184 185 185 185 186 186 186 187 187 187 188 188 188 189 189 189 190 190 190 191 191 191 192 192 192 193 193 193 194 194 194 195 195 195 196 196 196 197 197 197 198 198 198 199 199 199 200 200 200 201 201 201 202 202 202 203 203 203 204 204 204 205 205 205 206 206 206 207 207 207 208 208 208 209 209 209 210 210 210 211 211 211 212 212 212 213 213 213 214 214 214 215 215 215 216 216 216 217 217 217 218 218 218 219 219 219 220 220 220 221 221 221 222 222 222 223 223 223 224 224 224 225 225 225 226 226 226 227 227 227 228 228 228 229 229 229 230 230 230 231 231 231 232 232 232 233 233 233 234 234 234 235 235 235 236 236 236 237 237 237 238 238 238 239 239 239 240 240 240 241 241 241 242 242 242 243 243 243 244 244 244 245 245 245 246 246 246 247 247 247 248 248 248 249 249 249 250 250 250 251 251 251 252 252 252 253 253 253 254 254 254 255 255 255 256 256 256 257 257 257 258 258 258 259 259 259 260 260 260 261 261 261 262 262 262 263 263 263 264 264 264 265 265 265 266 266 266 267 267 267 268 268 268 269 269 269 270 270 270 271 271 271 272 272 272 273 273 273 274 274 274 275 275 275 276 276 276 277 277 277 278 278 278 279 279 279 280 280 280 281 281 281 282 282 282 283 283 283 284 284 284 285 285 285 286 286 286 287 287 287 288 288 288 289 289 289 290 290 290 291 291 291 292 292 292 293 293 293 294 294 294 295 295 295 296 296 296 297 297 297 298 298 298 299 299 299 300 300 300 301 301 301 302 302 302 303 303 303 304 304 304 305 305 305 306 306 306 307 307 307 308 308 308 309 309 309 310 310 310 311 311 311 312 312 312 313 313 313 314 314 314 315 315 315 316 316 316 317 317 317 318 318 318 319 319 319 320 320 320 321 321 321 322 322 322 323 323 323 324 324 324 325 325 325 326 326 326 327 327 327 328 328 328 329 329 329 330 330 330 331 331 331 332 332 332 333 333 333 334 334 334 335 335 335 336 336 336 337 337 337 338 338 338 339 339 339 340 340 340 341 341 341 342 342 342 343 343 343 344 344 344 345 345 345 346 346 346 347 347 347 348 348 348 349 349 349 350 350 350 351 351 351 352 352 352 353 353 353 354 354 354 355 355 355 356 356 356 357 357 357 358 358 358 359 359 359 360 360 360 361 361 361 362 362 362 363 363 363 364 364 364 365 365 365 366 366 366 367 367 367 368 368 368 369 369 369 370 370 370 371 371 371 372 372 372 373 373 373 374 374 374 375 375 375 376 376 376 377 377 377 378 378 378 379 379 379 380 380 380 381 381 381 382 382 382 383 383 383 384 384 384 385 385 385 386 386 386 387 387 387 388 388 388 389 389 389 390 390 390 391 391 391 392 392 392 393 393 393 394 394 394 395 395 395 396 396 396 397 397 397 398 398 398 399 399 399 400 400 400 401 401 401 402 402 402 403 403 403 404 404 404 405 405 405 406 406 406 407 407 407 408 408 408 409 409 409 410 410 410 411 411 411 412 412 412 413 413 413 414 414 414 415 415 415 416 416 416 417 417 417 418 418 418 419 419 419 420 420 420 421 421 421 422 422 422 423 423 423 424 424 424 425 425 425 426 426 426 427 427 427 428 428 428 429 429 429 430 430 430 431 431 431 432 432 432 433 433 433 434 434 434 435 435 435 436 436 436 437 437 437 438 438 438 439 439 439 440 440 440 441 441 441 442 442 442 443 443 443 444 444 444 445 445 445 446 446 446 447 447 447 448 448 448 449 449 449 450 450 450 451 451 451 452 452 452 453 453 453 454 454 454 455 455 455 456 456 456 457 457 457 458 458 458 459 459 459 460 460 460 461 461 461 462 462 462 463 463 463 464 464 464 465 465 465 466 466 466 467 467 467 468 468 468 469 469 469 470 470 470 471 471 471 472 472 472 473 473 473 474 474 474 475 475 475 476 476 476 477 477 477 478 478 478 479 479 479 480 480 480 481 481 481 482 482 482 483 483 483 484 484 484 485 485 485 486 486 486 487 487 487 488 488 488 489 489 489 490 490 490 491 491 491 492 492 492 493 493 493 494 494 494 495 495 495 496 496 496 497 497 497 498 498 498 499 499 499 500 500 500 501 501 501 502 502 502 503 503 503 504 504 504 505 505 505 506 506 506 507 507 507 508 508 508 509 509 509 510 510 510 511 511 511 512 512 512 513 513 513 514 514 514 515 515 515 516 516 516 517 517 517 518 518 518 519 519 519 520 520 520 521 521 521 522 522 522 523 523 523 524 524 524 525 525 525 526 526 526 527 527 527 528 528 528 529 529 529 530 530 530 531 531 531 532 532 532 533 533 533 534 534 534 535 535 535 536 536 536 537 537 537 538 538 538 539 539 539 540 540 540 541 541 541 542 542 542 543 543 543 544 544 544 545 545 545 546 546 546 547 547 547 548 548 548 549 549 549 550 550 550 551 551 551 552 552 552 553 553 553 554 554 554 555 555 555 556 556 556 557 557 557 558 558 558 559 559 559 560 560 560 561 561 561 562 562 562 563 563 563 564 564 564 565 565 565 566 566 566 567 567 567 568 568 568 569 569 569 570 570 570 571 571 571 572 572 572 573 573 573 574 574 574 575 575 575 576 576 576 577 577 577 578 578 578 579 579 579 580 580 580 581 581 581 582 582 582 583 583 583 584 584 584 585 585 585 586 586 586 587 587 587 588 588 588 589 589 589 590 590 590 591 591 591 592 592 592 593 593 593 594 594 594 595 595 595 596 596 596 597 597 597 598 598 598 599 599 599 600 600 600 601 601 601 602 602 602 603 603 603 604 604 604 605 605 605 606 606 606 607 607 607 608 608 608 609 609 609 610 610 610 611 611 611 612 612 612 613 613 613 614 614 614 615 615 615 616 616 616 617 617 617 618 618 618 619 619 619 620 620 620 621 621 621 622 622 622 623 623 623 624 624 624 625 625 625 626 626 626 627 627 627 628 628 628 629 629 629 630 630 630 631 631 631 632 632 632 633 633 633 634 634 634 635 635 635 636 636 636 637 637 637 638 638 638 639 639 639 640 640 640 641 641 641 642 642 642 643 643 643 644 644 644 645 645 645 646 646 646 647 647 647 648 648 648 649 649 649 650 650 650 651 651 651 652 652 652 653 653 653 654 654 654 655 655 655 656 656 656 657 657 657 658 658 658 659 659 659 660 660 660 661 661 661 662 662 662 663 663 663 664 664 664 665 665 665 666 666 666 667 667 667 668 668 668 669 669 669 670 670 670 671 671 671 672 672 672 673 673 673 674 674 674 675 675 675 676 676 676 677 677 677 678 678 678 679 679 679 680 680 680 681 681 681 682 682 682 683 683 683 684 684 684 685 685 685 686 686 686 687 687 687 688 688 688 689 689 689 690 690 690 691 691 691 692 692 692 693 693 693 694 694 694 695 695 695 696 696 696 697 697 697 698 698 698 699 699 699 700 700 700 701 701 701 702 702 702 703 703 703 704 704 704 705 705 705 706 706 706 707 707 707 708 708 708 709 709 709 710 710 710 711 711 711 712 712 712 713 713 713 714 714 714 715 715 715 716 716 716 717 717 717 718 718 718 719 719 719</p></triangles></mesh></geometry></library_geometries><library_visual_scenes><visual_scene id="Scene"><node id="g0-node"><instance_geometry url="#g0"><bind_material><technique_common><instance_material symbol="m1-slot" target="#m1-material"><bind_vertex_input semantic="UVMap" input_semantic="TEXCOORD" input_set="0" /></instance_material></technique_common></bind_material></instance_geometry></node></visual_scene></library_visual_scenes><scene><instance_visual_scene url="#Scene" /></scene></COLLADA>