<?xml version='1.0' encoding='utf-8'?>
<COLLADA xmlns="http://www.collada.org/2005/11/COLLADASchema" version="1.4.1"><asset><created>2026-10-03T00:00:00Z</created><modified>2026-10-03T00:00:00Z</modified><up_axis>Z_UP</up_axis></asset><library_effects><effect id="frame-effect"><profile_COMMON><technique sid="common"><phong><emission><color>0 0 0 1</color></emission><ambient><color>.44 .31 .14 1</color></ambient><diffuse><color>.44 .31 .14 1</color></diffuse><specular><color>.025 .025 .025 1</color></specular><shininess><float>8</float></shininess></phong></technique></profile_COMMON></effect><effect id="soil-effect"><profile_COMMON><technique sid="common"><phong><emission><color>0 0 0 1</color></emission><ambient><color>.17 .105 .052 1</color></ambient><diffuse><color>.17 .105 .052 1</color></diffuse><specular><color>.025 .025 .025 1</color></specular><shininess><float>8</float></shininess></phong></technique></profile_COMMON></effect><effect id="leaf-effect"><profile_COMMON><technique sid="common"><phong><emission><color>0 0 0 1</color></emission><ambient><color>.23 .39 .12 1</color></ambient><diffuse><color>.23 .39 .12 1</color></diffuse><specular><color>.025 .025 .025 1</color></specular><shininess><float>8</float></shininess></phong></technique></profile_COMMON></effect></library_effects><library_materials><material id="frame-material"><instance_effect url="#frame-effect" /></material><material id="soil-material"><instance_effect url="#soil-effect" /></material><material id="leaf-material"><instance_effect url="#leaf-effect" /></material></library_materials><library_geometries><geometry id="frame-mesh"><mesh><source id="frame-p"><float_array id="frame-p-array" count="432">-60 -90 22 60 -90 22 60 -82 22 -60 -90 22 60 -82 22 -60 -82 22 -60 -90 0 -60 -82 0 60 -82 0 -60 -90 0 60 -82 0 60 -90 0 -60 -90 0 60 -90 0 60 -90 22 -60 -90 0 60 -90 22 -60 -90 22 60 -90 0 60 -82 0 60 -82 22 60 -90 0 60 -82 22 60 -90 22 60 -82 0 -60 -82 0 -60 -82 22 60 -82 0 -60 -82 22 60 -82 22 -60 -82 0 -60 -90 0 -60 -90 22 -60 -82 0 -60 -90 22 -60 -82 22 -60 82 22 60 82 22 60 90 22 -60 82 22 60 90 22 -60 90 22 -60 82 0 -60 90 0 60 90 0 -60 82 0 60 90 0 60 82 0 -60 82 0 60 82 0 60 82 22 -60 82 0 60 82 22 -60 82 22 60 82 0 60 90 0 60 90 22 60 82 0 60 90 22 60 82 22 60 90 0 -60 90 0 -60 90 22 60 90 0 -60 90 22 60 90 22 -60 90 0 -60 82 0 -60 82 22 -60 90 0 -60 82 22 -60 90 22 -60 -82 22 -52 -82 22 -52 82 22 -60 -82 22 -52 82 22 -60 82 22 -60 -82 0 -60 82 0 -52 82 0 -60 -82 0 -52 82 0 -52 -82 0 -60 -82 0 -52 -82 0 -52 -82 22 -60 -82 0 -52 -82 22 -60 -82 22 -52 -82 0 -52 82 0 -52 82 22 -52 -82 0 -52 82 22 -52 -82 22 -52 82 0 -60 82 0 -60 82 22 -52 82 0 -60 82 22 -52 82 22 -60 82 0 -60 -82 0 -60 -82 22 -60 82 0 -60 -82 22 -60 82 22 52 -82 22 60 -82 22 60 82 22 52 -82 22 60 82 22 52 82 22 52 -82 0 52 82 0 60 82 0 52 -82 0 60 82 0 60 -82 0 52 -82 0 60 -82 0 60 -82 22 52 -82 0 60 -82 22 52 -82 22 60 -82 0 60 82 0 60 82 22 60 -82 0 60 82 22 60 -82 22 60 82 0 52 82 0 52 82 22 60 82 0 52 82 22 60 82 22 52 82 0 52 -82 0 52 -82 22 52 82 0 52 -82 22 52 82 22</float_array><technique_common><accessor source="#frame-p-array" count="144" stride="3"><param name="X" type="float" /><param name="Y" type="float" /><param name="Z" type="float" /></accessor></technique_common></source><source id="frame-n"><float_array id="frame-n-array" count="432">0 0 1 0 0 1 0 0 1 0 0 1 0 0 1 0 0 1 0 0 -1 0 0 -1 0 0 -1 0 0 -1 0 0 -1 0 0 -1 0 -1 0 0 -1 0 0 -1 0 0 -1 0 0 -1 0 0 -1 0 1 0 0 1 0 0 1 0 0 1 0 0 1 0 0 1 0 0 0 1 0 0 1 0 0 1 0 0 1 0 0 1 0 0 1 0 -1 0 0 -1 0 0 -1 0 0 -1 0 0 -1 0 0 -1 0 0 0 0 1 0 0 1 0 0 1 0 0 1 0 0 1 0 0 1 0 0 -1 0 0 -1 0 0 -1 0 0 -1 0 0 -1 0 0 -1 0 -1 0 0 -1 0 0 -1 0 0 -1 0 0 -1 0 0 -1 0 1 0 0 1 0 0 1 0 0 1 0 0 1 0 0 1 0 0 0 1 0 0 1 0 0 1 0 0 1 0 0 1 0 0 1 0 -1 0 0 -1 0 0 -1 0 0 -1 0 0 -1 0 0 -1 0 0 0 0 1 0 0 1 0 0 1 0 0 1 0 0 1 0 0 1 0 0 -1 0 0 -1 0 0 -1 0 0 -1 0 0 -1 0 0 -1 0 -1 0 0 -1 0 0 -1 0 0 -1 0 0 -1 0 0 -1 0 1 0 0 1 0 0 1 0 0 1 0 0 1 0 0 1 0 0 0 1 0 0 1 0 0 1 0 0 1 0 0 1 0 0 1 0 -1 0 0 -1 0 0 -1 0 0 -1 0 0 -1 0 0 -1 0 0 0 0 1 0 0 1 0 0 1 0 0 1 0 0 1 0 0 1 0 0 -1 0 0 -1 0 0 -1 0 0 -1 0 0 -1 0 0 -1 0 -1 0 0 -1 0 0 -1 0 0 -1 0 0 -1 0 0 -1 0 1 0 0 1 0 0 1 0 0 1 0 0 1 0 0 1 0 0 0 1 0 0 1 0 0 1 0 0 1 0 0 1 0 0 1 0 -1 0 0 -1 0 0 -1 0 0 -1 0 0 -1 0 0 -1 0 0</float_array><technique_common><accessor source="#frame-n-array" count="144" stride="3"><param name="X" type="float" /><param name="Y" type="float" /><param name="Z" type="float" /></accessor></technique_common></source><vertices id="frame-vertices"><input semantic="POSITION" source="#frame-p" /></vertices><triangles count="48" material="frame-slot"><input semantic="VERTEX" source="#frame-vertices" offset="0" /><input semantic="NORMAL" source="#frame-n" offset="1" /><p>0 0 1 1 2 2 3 3 4 4 5 5 6 6 7 7 8 8 9 9 10 10 11 11 12 12 13 13 14 14 15 15 16 16 17 17 18 18 19 19 20 20 21 21 22 22 23 23 24 24 25 25 26 26 27 27 28 28 29 29 30 30 31 31 32 32 33 33 34 34 35 35 36 36 37 37 38 38 39 39 40 40 41 41 42 42 43 43 44 44 45 45 46 46 47 47 48 48 49 49 50 50 51 51 52 52 53 53 54 54 55 55 56 56 57 57 58 58 59 59 60 60 61 61 62 62 63 63 64 64 65 65 66 66 67 67 68 68 69 69 70 70 71 71 72 72 73 73 74 74 75 75 76 76 77 77 78 78 79 79 80 80 81 81 82 82 83 83 84 84 85 85 86 86 87 87 88 88 89 89 90 90 91 91 92 92 93 93 94 94 95 95 96 96 97 97 98 98 99 99 100 100 101 101 102 102 103 103 104 104 105 105 106 106 107 107 108 108 109 109 110 110 111 111 112 112 113 113 114 114 115 115 116 116 117 117 118 118 119 119 120 120 121 121 122 122 123 123 124 124 125 125 126 126 127 127 128 128 129 129 130 130 131 131 132 132 133 133 134 134 135 135 136 136 137 137 138 138 139 139 140 140 141 141 142 142 143 143</p></triangles></mesh></geometry><geometry id="soil-mesh"><mesh><source id="soil-p"><float_array id="soil-p-array" count="108">-52 -82 10 52 -82 10 52 82 10 -52 -82 10 52 82 10 -52 82 10 -52 -82 0 -52 82 0 52 82 0 -52 -82 0 52 82 0 52 -82 0 -52 -82 0 52 -82 0 52 -82 10 -52 -82 0 52 -82 10 -52 -82 10 52 -82 0 52 82 0 52 82 10 52 -82 0 52 82 10 52 -82 10 52 82 0 -52 82 0 -52 82 10 52 82 0 -52 82 10 52 82 10 -52 82 0 -52 -82 0 -52 -82 10 -52 82 0 -52 -82 10 -52 82 10</float_array><technique_common><accessor source="#soil-p-array" count="36" stride="3"><param name="X" type="float" /><param name="Y" type="float" /><param name="Z" type="float" /></accessor></technique_common></source><source id="soil-n"><float_array id="soil-n-array" count="108">0 0 1 0 0 1 0 0 1 0 0 1 0 0 1 0 0 1 0 0 -1 0 0 -1 0 0 -1 0 0 -1 0 0 -1 0 0 -1 0 -1 0 0 -1 0 0 -1 0 0 -1 0 0 -1 0 0 -1 0 1 0 0 1 0 0 1 0 0 1 0 0 1 0 0 1 0 0 0 1 0 0 1 0 0 1 0 0 1 0 0 1 0 0 1 0 -1 0 0 -1 0 0 -1 0 0 -1 0 0 -1 0 0 -1 0 0</float_array><technique_common><accessor source="#soil-n-array" count="36" stride="3"><param name="X" type="float" /><param name="Y" type="float" /><param name="Z" type="float" /></accessor></technique_common></source><vertices id="soil-vertices"><input semantic="POSITION" source="#soil-p" /></vertices><triangles count="12" material="soil-slot"><input semantic="VERTEX" source="#soil-vertices" offset="0" /><input semantic="NORMAL" source="#soil-n" offset="1" /><p>0 0 1 1 2 2 3 3 4 4 5 5 6 6 7 7 8 8 9 9 10 10 11 11 12 12 13 13 14 14 15 15 16 16 17 17 18 18 19 19 20 20 21 21 22 22 23 23 24 24 25 25 26 26 27 27 28 28 29 29 30 30 31 31 32 32 33 33 34 34 35 35</p></triangles></mesh></geometry><geometry id="leaf-mesh"><mesh><source id="leaf-p"><float_array id="leaf-p-array" count="756">-30 -58 36 -26 -58 36 -26 -54 36 -30 -58 36 -26 -54 36 -30 -54 36 -30 -58 10 -30 -54 10 -26 -54 10 -30 -58 10 -26 -54 10 -26 -58 10 -30 -58 10 -26 -58 10 -26 -58 36 -30 -58 10 -26 -58 36 -30 -58 36 -26 -58 10 -26 -54 10 -26 -54 36 -26 -58 10 -26 -54 36 -26 -58 36 -26 -54 10 -30 -54 10 -30 -54 36 -26 -54 10 -30 -54 36 -26 -54 36 -30 -54 10 -30 -58 10 -30 -58 36 -30 -54 10 -30 -58 36 -30 -54 36 -48 -56 17 -28 -59 31 -10 -56 22 -10 -56 22 -28 -59 31 -48 -56 17 26 -58 36 30 -58 36 30 -54 36 26 -58 36 30 -54 36 26 -54 36 26 -58 10 26 -54 10 30 -54 10 26 -58 10 30 -54 10 30 -58 10 26 -58 10 30 -58 10 30 -58 36 26 -58 10 30 -58 36 26 -58 36 30 -58 10 30 -54 10 30 -54 36 30 -58 10 30 -54 36 30 -58 36 30 -54 10 26 -54 10 26 -54 36 30 -54 10 26 -54 36 30 -54 36 26 -54 10 26 -58 10 26 -58 36 26 -54 10 26 -58 36 26 -54 36 8 -56 17 28 -59 31 46 -56 22 46 -56 22 28 -59 31 8 -56 17 -30 -2 36 -26 -2 36 -26 2 36 -30 -2 36 -26 2 36 -30 2 36 -30 -2 10 -30 2 10 -26 2 10 -30 -2 10 -26 2 10 -26 -2 10 -30 -2 10 -26 -2 10 -26 -2 36 -30 -2 10 -26 -2 36 -30 -2 36 -26 -2 10 -26 2 10 -26 2 36 -26 -2 10 -26 2 36 -26 -2 36 -26 2 10 -30 2 10 -30 2 36 -26 2 10 -30 2 36 -26 2 36 -30 2 10 -30 -2 10 -30 -2 36 -30 2 10 -30 -2 36 -30 2 36 -48 0 17 -28 -3 31 -10 0 22 -10 0 22 -28 -3 31 -48 0 17 26 -2 36 30 -2 36 30 2 36 26 -2 36 30 2 36 26 2 36 26 -2 10 26 2 10 30 2 10 26 -2 10 30 2 10 30 -2 10 26 -2 10 30 -2 10 30 -2 36 26 -2 10 30 -2 36 26 -2 36 30 -2 10 30 2 10 30 2 36 30 -2 10 30 2 36 30 -2 36 30 2 10 26 2 10 26 2 36 30 2 10 26 2 36 30 2 36 26 2 10 26 -2 10 26 -2 36 26 2 10 26 -2 36 26 2 36 8 0 17 28 -3 31 46 0 22 46 0 22 28 -3 31 8 0 17 -30 54 36 -26 54 36 -26 58 36 -30 54 36 -26 58 36 -30 58 36 -30 54 10 -30 58 10 -26 58 10 -30 54 10 -26 58 10 -26 54 10 -30 54 10 -26 54 10 -26 54 36 -30 54 10 -26 54 36 -30 54 36 -26 54 10 -26 58 10 -26 58 36 -26 54 10 -26 58 36 -26 54 36 -26 58 10 -30 58 10 -30 58 36 -26 58 10 -30 58 36 -26 58 36 -30 58 10 -30 54 10 -30 54 36 -30 58 10 -30 54 36 -30 58 36 -48 56 17 -28 53 31 -10 56 22 -10 56 22 -28 53 31 -48 56 17 26 54 36 30 54 36 30 58 36 26 54 36 30 58 36 26 58 36 26 54 10 26 58 10 30 58 10 26 54 10 30 58 10 30 54 10 26 54 10 30 54 10 30 54 36 26 54 10 30 54 36 26 54 36 30 54 10 30 58 10 30 58 36 30 54 10 30 58 36 30 54 36 30 58 10 26 58 10 26 58 36 30 58 10 26 58 36 30 58 36 26 58 10 26 54 10 26 54 36 26 58 10 26 54 36 26 58 36 8 56 17 28 53 31 46 56 22 46 56 22 28 53 31 8 56 17</float_array><technique_common><accessor source="#leaf-p-array" count="252" stride="3"><param name="X" type="float" /><param name="Y" type="float" /><param name="Z" type="float" /></accessor></technique_common></source><source id="leaf-n"><float_array id="leaf-n-array" count="756">0 0 1 0 0 1 0 0 1 0 0 1 0 0 1 0 0 1 0 0 -1 0 0 -1 0 0 -1 0 0 -1 0 0 -1 0 0 -1 0 -1 0 0 -1 0 0 -1 0 0 -1 0 0 -1 0 0 -1 0 1 0 0 1 0 0 1 0 0 1 0 0 1 0 0 1 0 0 0 1 0 0 1 0 0 1 0 0 1 0 0 1 0 0 1 0 -1 0 0 -1 0 0 -1 0 0 -1 0 0 -1 0 0 -1 0 0 -0.0335540244 0.966355902 0.255010585 -0.0335540244 0.966355902 0.255010585 -0.0335540244 0.966355902 0.255010585 0.0335540244 -0.966355902 -0.255010585 0.0335540244 -0.966355902 -0.255010585 0.0335540244 -0.966355902 -0.255010585 0 0 1 0 0 1 0 0 1 0 0 1 0 0 1 0 0 1 0 0 -1 0 0 -1 0 0 -1 0 0 -1 0 0 -1 0 0 -1 0 -1 0 0 -1 0 0 -1 0 0 -1 0 0 -1 0 0 -1 0 1 0 0 1 0 0 1 0 0 1 0 0 1 0 0 1 0 0 0 1 0 0 1 0 0 1 0 0 1 0 0 1 0 0 1 0 -1 0 0 -1 0 0 -1 0 0 -1 0 0 -1 0 0 -1 0 0 -0.0335540244 0.966355902 0.255010585 -0.0335540244 0.966355902 0.255010585 -0.0335540244 0.966355902 0.255010585 0.0335540244 -0.966355902 -0.255010585 0.0335540244 -0.966355902 -0.255010585 0.0335540244 -0.966355902 -0.255010585 0 0 1 0 0 1 0 0 1 0 0 1 0 0 1 0 0 1 0 0 -1 0 0 -1 0 0 -1 0 0 -1 0 0 -1 0 0 -1 0 -1 0 0 -1 0 0 -1 0 0 -1 0 0 -1 0 0 -1 0 1 0 0 1 0 0 1 0 0 1 0 0 1 0 0 1 0 0 0 1 0 0 1 0 0 1 0 0 1 0 0 1 0 0 1 0 -1 0 0 -1 0 0 -1 0 0 -1 0 0 -1 0 0 -1 0 0 -0.0335540244 0.966355902 0.255010585 -0.0335540244 0.966355902 0.255010585 -0.0335540244 0.966355902 0.255010585 0.0335540244 -0.966355902 -0.255010585 0.0335540244 -0.966355902 -0.255010585 0.0335540244 -0.966355902 -0.255010585 0 0 1 0 0 1 0 0 1 0 0 1 0 0 1 0 0 1 0 0 -1 0 0 -1 0 0 -1 0 0 -1 0 0 -1 0 0 -1 0 -1 0 0 -1 0 0 -1 0 0 -1 0 0 -1 0 0 -1 0 1 0 0 1 0 0 1 0 0 1 0 0 1 0 0 1 0 0 0 1 0 0 1 0 0 1 0 0 1 0 0 1 0 0 1 0 -1 0 0 -1 0 0 -1 0 0 -1 0 0 -1 0 0 -1 0 0 -0.0335540244 0.966355902 0.255010585 -0.0335540244 0.966355902 0.255010585 -0.0335540244 0.966355902 0.255010585 0.0335540244 -0.966355902 -0.255010585 0.0335540244 -0.966355902 -0.255010585 0.0335540244 -0.966355902 -0.255010585 0 0 1 0 0 1 0 0 1 0 0 1 0 0 1 0 0 1 0 0 -1 0 0 -1 0 0 -1 0 0 -1 0 0 -1 0 0 -1 0 -1 0 0 -1 0 0 -1 0 0 -1 0 0 -1 0 0 -1 0 1 0 0 1 0 0 1 0 0 1 0 0 1 0 0 1 0 0 0 1 0 0 1 0 0 1 0 0 1 0 0 1 0 0 1 0 -1 0 0 -1 0 0 -1 0 0 -1 0 0 -1 0 0 -1 0 0 -0.0335540244 0.966355902 0.255010585 -0.0335540244 0.966355902 0.255010585 -0.0335540244 0.966355902 0.255010585 0.0335540244 -0.966355902 -0.255010585 0.0335540244 -0.966355902 -0.255010585 0.0335540244 -0.966355902 -0.255010585 0 0 1 0 0 1 0 0 1 0 0 1 0 0 1 0 0 1 0 0 -1 0 0 -1 0 0 -1 0 0 -1 0 0 -1 0 0 -1 0 -1 0 0 -1 0 0 -1 0 0 -1 0 0 -1 0 0 -1 0 1 0 0 1 0 0 1 0 0 1 0 0 1 0 0 1 0 0 0 1 0 0 1 0 0 1 0 0 1 0 0 1 0 0 1 0 -1 0 0 -1 0 0 -1 0 0 -1 0 0 -1 0 0 -1 0 0 -0.0335540244 0.966355902 0.255010585 -0.0335540244 0.966355902 0.255010585 -0.0335540244 0.966355902 0.255010585 0.0335540244 -0.966355902 -0.255010585 0.0335540244 -0.966355902 -0.255010585 0.0335540244 -0.966355902 -0.255010585</float_array><technique_common><accessor source="#leaf-n-array" count="252" stride="3"><param name="X" type="float" /><param name="Y" type="float" /><param name="Z" type="float" /></accessor></technique_common></source><vertices id="leaf-vertices"><input semantic="POSITION" source="#leaf-p" /></vertices><triangles count="84" material="leaf-slot"><input semantic="VERTEX" source="#leaf-vertices" offset="0" /><input semantic="NORMAL" source="#leaf-n" offset="1" /><p>0 0 1 1 2 2 3 3 4 4 5 5 6 6 7 7 8 8 9 9 10 10 11 11 12 12 13 13 14 14 15 15 16 16 17 17 18 18 19 19 20 20 21 21 22 22 23 23 24 24 25 25 26 26 27 27 28 28 29 29 30 30 31 31 32 32 33 33 34 34 35 35 36 36 37 37 38 38 39 39 40 40 41 41 42 42 43 43 44 44 45 45 46 46 47 47 48 48 49 49 50 50 51 51 52 52 53 53 54 54 55 55 56 56 57 57 58 58 59 59 60 60 61 61 62 62 63 63 64 64 65 65 66 66 67 67 68 68 69 69 70 70 71 71 72 72 73 73 74 74 75 75 76 76 77 77 78 78 79 79 80 80 81 81 82 82 83 83 84 84 85 85 86 86 87 87 88 88 89 89 90 90 91 91 92 92 93 93 94 94 95 95 96 96 97 97 98 98 99 99 100 100 101 101 102 102 103 103 104 104 105 105 106 106 107 107 108 108 109 109 110 110 111 111 112 112 113 113 114 114 115 115 116 116 117 117 118 118 119 119 120 120 121 121 122 122 123 123 124 124 125 125 126 126 127 127 128 128 129 129 130 130 131 131 132 132 133 133 134 134 135 135 136 136 137 137 138 138 139 139 140 140 141 141 142 142 143 143 144 144 145 145 146 146 147 147 148 148 149 149 150 150 151 151 152 152 153 153 154 154 155 155 156 156 157 157 158 158 159 159 160 160 161 161 162 162 163 163 164 164 165 165 166 166 167 167 168 168 169 169 170 170 171 171 172 172 173 173 174 174 175 175 176 176 177 177 178 178 179 179 180 180 181 181 182 182 183 183 184 184 185 185 186 186 187 187 188 188 189 189 190 190 191 191 192 192 193 193 194 194 195 195 196 196 197 197 198 198 199 199 200 200 201 201 202 202 203 203 204 204 205 205 206 206 207 207 208 208 209 209 210 210 211 211 212 212 213 213 214 214 215 215 216 216 217 217 218 218 219 219 220 220 221 221 222 222 223 223 224 224 225 225 226 226 227 227 228 228 229 229 230 230 231 231 232 232 233 233 234 234 235 235 236 236 237 237 238 238 239 239 240 240 241 241 242 242 243 243 244 244 245 245 246 246 247 247 248 248 249 249 250 250 251 251</p></triangles></mesh></geometry></library_geometries><library_visual_scenes><visual_scene id="Scene"><node id="frame-node"><instance_geometry url="#frame-mesh"><bind_material><technique_common><instance_material symbol="frame-slot" target="#frame-material" /></technique_common></bind_material></instance_geometry></node><node id="soil-node"><instance_geometry url="#soil-mesh"><bind_material><technique_common><instance_material symbol="soil-slot" target="#soil-material" /></technique_common></bind_material></instance_geometry></node><node id="leaf-node"><instance_geometry url="#leaf-mesh"><bind_material><technique_common><instance_material symbol="leaf-slot" target="#leaf-material" /></technique_common></bind_material></instance_geometry></node></visual_scene></library_visual_scenes><scene><instance_visual_scene url="#Scene" /></scene></COLLADA>