<?xml version='1.0' encoding='utf-8'?>
<COLLADA xmlns="http://www.collada.org/2005/11/COLLADASchema" version="1.4.1"><asset><created>2026-10-03T00:00:00Z</created><modified>2026-10-03T00:00:00Z</modified><up_axis>Z_UP</up_axis></asset><library_images><image id="stone-image"><init_from>textures/veyra/frontier/frontier_stone.dds</init_from></image></library_images><library_effects><effect id="stone-effect"><profile_COMMON><newparam sid="stone-surface"><surface type="2D"><init_from>stone-image</init_from></surface></newparam><newparam sid="stone-sampler"><sampler2D><source>stone-surface</source></sampler2D></newparam><technique sid="common"><phong><emission><color>0 0 0 1</color></emission><ambient><color>.55 .55 .55 1</color></ambient><diffuse><texture texture="stone-sampler" texcoord="UVMap" /></diffuse><specular><color>.025 .025 .025 1</color></specular><shininess><float>8</float></shininess></phong></technique></profile_COMMON></effect></library_effects><library_materials><material id="stone-material"><instance_effect url="#stone-effect" /></material></library_materials><library_geometries><geometry id="own-mesh"><mesh><source id="own-p"><float_array id="own-p-array" count="108">-732.781387 -1241.89827 8 1241.89827 732.781387 8 732.781387 1241.89827 8 -732.781387 -1241.89827 -64 732.781387 1241.89827 -64 1241.89827 732.781387 -64 -732.781387 -1241.89827 8 732.781387 1241.89827 8 -1241.89827 -732.781387 8 -732.781387 -1241.89827 -64 -1241.89827 -732.781387 -64 732.781387 1241.89827 -64 -732.781387 -1241.89827 -64 1241.89827 732.781387 -64 1241.89827 732.781387 8 -732.781387 -1241.89827 -64 1241.89827 732.781387 8 -732.781387 -1241.89827 8 1241.89827 732.781387 -64 732.781387 1241.89827 -64 732.781387 1241.89827 8 1241.89827 732.781387 -64 732.781387 1241.89827 8 1241.89827 732.781387 8 732.781387 1241.89827 -64 -1241.89827 -732.781387 -64 -1241.89827 -732.781387 8 732.781387 1241.89827 -64 -1241.89827 -732.781387 8 732.781387 1241.89827 8 -1241.89827 -732.781387 -64 -732.781387 -1241.89827 -64 -732.781387 -1241.89827 8 -1241.89827 -732.781387 -64 -732.781387 -1241.89827 8 -1241.89827 -732.781387 8</float_array><technique_common><accessor source="#own-p-array" count="36" stride="3"><param name="X" type="float" /><param name="Y" type="float" /><param name="Z" type="float" /></accessor></technique_common></source><source id="own-n"><float_array id="own-n-array" count="108">0 0 1 0 0 1 0 0 1 0 0 -1 0 0 -1 0 0 -1 0 -0 1 0 -0 1 0 -0 1 0 0 -1 0 0 -1 0 0 -1 0.707106781 -0.707106781 0 0.707106781 -0.707106781 0 0.707106781 -0.707106781 0 0.707106781 -0.707106781 0 0.707106781 -0.707106781 0 0.707106781 -0.707106781 0 0.707106781 0.707106781 0 0.707106781 0.707106781 0 0.707106781 0.707106781 0 0.707106781 0.707106781 -0 0.707106781 0.707106781 -0 0.707106781 0.707106781 -0 -0.707106781 0.707106781 0 -0.707106781 0.707106781 0 -0.707106781 0.707106781 0 -0.707106781 0.707106781 0 -0.707106781 0.707106781 0 -0.707106781 0.707106781 0 -0.707106781 -0.707106781 0 -0.707106781 -0.707106781 0 -0.707106781 -0.707106781 0 -0.707106781 -0.707106781 0 -0.707106781 -0.707106781 0 -0.707106781 -0.707106781 0</float_array><technique_common><accessor source="#own-n-array" count="36" stride="3"><param name="X" type="float" /><param name="Y" type="float" /><param name="Z" type="float" /></accessor></technique_common></source><source id="own-uv"><float_array id="own-uv-array" count="72">-2.86242729 -4.85116512 4.85116512 2.86242729 2.86242729 4.85116512 -2.86242729 -4.85116512 2.86242729 4.85116512 4.85116512 2.86242729 -2.86242729 -4.85116512 2.86242729 4.85116512 -4.85116512 -2.86242729 -2.86242729 -4.85116512 -4.85116512 -2.86242729 2.86242729 4.85116512 -2.86242729 -0.25 4.85116512 -0.25 4.85116512 0.03125 -2.86242729 -0.25 4.85116512 0.03125 -2.86242729 0.03125 2.86242729 -0.25 4.85116512 -0.25 4.85116512 0.03125 2.86242729 -0.25 4.85116512 0.03125 2.86242729 0.03125 2.86242729 -0.25 -4.85116512 -0.25 -4.85116512 0.03125 2.86242729 -0.25 -4.85116512 0.03125 2.86242729 0.03125 -2.86242729 -0.25 -4.85116512 -0.25 -4.85116512 0.03125 -2.86242729 -0.25 -4.85116512 0.03125 -2.86242729 0.03125</float_array><technique_common><accessor source="#own-uv-array" count="36" stride="2"><param name="S" type="float" /><param name="T" type="float" /></accessor></technique_common></source><vertices id="own-vertices"><input semantic="POSITION" source="#own-p" /></vertices><triangles count="12" material="stone-slot"><input semantic="VERTEX" source="#own-vertices" offset="0" /><input semantic="NORMAL" source="#own-n" offset="1" /><input semantic="TEXCOORD" source="#own-uv" offset="2" set="0" /><p>0 0 0 1 1 1 2 2 2 3 3 3 4 4 4 5 5 5 6 6 6 7 7 7 8 8 8 9 9 9 10 10 10 11 11 11 12 12 12 13 13 13 14 14 14 15 15 15 16 16 16 17 17 17 18 18 18 19 19 19 20 20 20 21 21 21 22 22 22 23 23 23 24 24 24 25 25 25 26 26 26 27 27 27 28 28 28 29 29 29 30 30 30 31 31 31 32 32 32 33 33 33 34 34 34 35 35 35</p></triangles></mesh></geometry></library_geometries><library_visual_scenes><visual_scene id="Scene"><node id="own-solid-node"><instance_geometry url="#own-mesh"><bind_material><technique_common><instance_material symbol="stone-slot" target="#stone-material"><bind_vertex_input semantic="UVMap" input_semantic="TEXCOORD" input_set="0" /></instance_material></technique_common></bind_material></instance_geometry></node></visual_scene></library_visual_scenes><scene><instance_visual_scene url="#Scene" /></scene></COLLADA>